<svg width="44" height="44" viewBox="0 0 44 44" fill="none" xmlns="http://www.w3.org/2000/svg">
<path d="M20.1667 27.4993H23.8333C24.8058 27.4993 25.7384 27.113 26.4261 26.4254C27.1137 25.7378 27.5 24.8051 27.5 23.8327C27.5 22.8602 27.1137 21.9276 26.4261 21.24C25.7384 20.5523 24.8058 20.166 23.8333 20.166H18.3333C17.2333 20.166 16.3167 20.5327 15.7667 21.266L5.5 31.166" stroke="#0E1420" stroke-width="2" stroke-linecap="round" stroke-linejoin="round"/>
<path d="M12.8359 38.4995L15.7693 35.9329C16.3193 35.1995 17.2359 34.8329 18.3359 34.8329H25.6693C27.6859 34.8329 29.5193 34.0995 30.8026 32.6329L39.2359 24.5662C39.9434 23.8976 40.3563 22.9754 40.3838 22.0024C40.4113 21.0294 40.0512 20.0853 39.3826 19.3779C38.714 18.6704 37.7918 18.2575 36.8188 18.23C35.8458 18.2025 34.9017 18.5626 34.1943 19.2312L26.4943 26.3812" stroke="#0E1420" stroke-width="2" stroke-linecap="round" stroke-linejoin="round"/>
<path d="M3.66406 29.334L14.6641 40.334" stroke="#0E1420" stroke-width="2" stroke-linecap="round" stroke-linejoin="round"/>
<path d="M29.3323 21.8169C32.2686 21.8169 34.649 19.4366 34.649 16.5003C34.649 13.5639 32.2686 11.1836 29.3323 11.1836C26.396 11.1836 24.0156 13.5639 24.0156 16.5003C24.0156 19.4366 26.396 21.8169 29.3323 21.8169Z" stroke="#0E1420" stroke-width="2" stroke-linecap="round" stroke-linejoin="round"/>
<path d="M11 14.666C14.0376 14.666 16.5 12.2036 16.5 9.16602C16.5 6.12845 14.0376 3.66602 11 3.66602C7.96243 3.66602 5.5 6.12845 5.5 9.16602C5.5 12.2036 7.96243 14.666 11 14.666Z" stroke="#0E1420" stroke-width="2" stroke-linecap="round" stroke-linejoin="round"/>
</svg>
