<svg width="664" height="452" viewBox="0 0 664 452" fill="none" xmlns="http://www.w3.org/2000/svg">
<rect x="0.5" y="0.5" width="663" height="451" fill="white" stroke="#0072C1"/>
<path d="M19.0701 29.6224H26.3814V32.4512H19.0701V29.6224ZM19.3312 38H15.8061V22.768H27.3171V25.5968H19.3312V38ZM29.4642 38V26.2931H32.8588V38H29.4642ZM31.1615 24.6611C30.5377 24.6611 30.03 24.4798 29.6383 24.1171C29.2466 23.7545 29.0508 23.3047 29.0508 22.768C29.0508 22.2313 29.2466 21.7815 29.6383 21.4189C30.03 21.0562 30.5377 20.8749 31.1615 20.8749C31.7853 20.8749 32.293 21.049 32.6847 21.3971C33.0764 21.7308 33.2722 22.166 33.2722 22.7027C33.2722 23.2685 33.0764 23.7399 32.6847 24.1171C32.3075 24.4798 31.7998 24.6611 31.1615 24.6611ZM41.6668 38.1741C40.4047 38.1741 39.2805 37.9202 38.294 37.4125C37.3076 36.8902 36.5315 36.1722 35.9657 35.2582C35.4144 34.3443 35.1388 33.3071 35.1388 32.1466C35.1388 30.9715 35.4144 29.9343 35.9657 29.0349C36.5315 28.121 37.3076 27.4101 38.294 26.9024C39.2805 26.3802 40.4047 26.119 41.6668 26.119C42.8999 26.119 43.9734 26.3802 44.8873 26.9024C45.8012 27.4101 46.4758 28.1427 46.911 29.1002L44.278 30.5146C43.9734 29.9633 43.589 29.5571 43.1247 29.296C42.675 29.0349 42.1818 28.9043 41.6451 28.9043C41.0648 28.9043 40.5426 29.0349 40.0783 29.296C39.6141 29.5571 39.2442 29.927 38.9686 30.4058C38.7075 30.8845 38.5769 31.4647 38.5769 32.1466C38.5769 32.8284 38.7075 33.4086 38.9686 33.8874C39.2442 34.3661 39.6141 34.736 40.0783 34.9971C40.5426 35.2582 41.0648 35.3888 41.6451 35.3888C42.1818 35.3888 42.675 35.2655 43.1247 35.0189C43.589 34.7578 43.9734 34.3443 44.278 33.7786L46.911 35.2147C46.4758 36.1577 45.8012 36.8902 44.8873 37.4125C43.9734 37.9202 42.8999 38.1741 41.6668 38.1741ZM55.896 26.119C56.8244 26.119 57.6513 26.3076 58.3766 26.6848C59.1165 27.0475 59.6967 27.6132 60.1174 28.3821C60.5381 29.1364 60.7485 30.1084 60.7485 31.2979V38H57.3539V31.8202C57.3539 30.8772 57.1436 30.1809 56.7229 29.7312C56.3167 29.2815 55.7364 29.0566 54.9821 29.0566C54.4453 29.0566 53.9593 29.1727 53.5241 29.4048C53.1035 29.6224 52.7698 29.9633 52.5232 30.4275C52.2911 30.8917 52.175 31.4865 52.175 32.2118V38H48.7805V21.8541H52.175V29.5354L51.4134 28.5562C51.8341 27.7728 52.4361 27.1708 53.2195 26.7501C54.0029 26.3294 54.895 26.119 55.896 26.119ZM69.7204 38.1741C68.3858 38.1741 67.2107 37.913 66.1953 37.3907C65.1943 36.8685 64.4182 36.1577 63.867 35.2582C63.3157 34.3443 63.0401 33.3071 63.0401 32.1466C63.0401 30.9715 63.3084 29.9343 63.8452 29.0349C64.3964 28.121 65.1435 27.4101 66.0865 26.9024C67.0294 26.3802 68.0956 26.119 69.2852 26.119C70.4312 26.119 71.4612 26.3657 72.3751 26.8589C73.3035 27.3376 74.0361 28.0339 74.5729 28.9478C75.1096 29.8473 75.378 30.928 75.378 32.1901C75.378 32.3206 75.3707 32.473 75.3562 32.647C75.3417 32.8066 75.3272 32.9589 75.3127 33.104H65.8036V31.1238H73.5284L72.2228 31.7114C72.2228 31.1021 72.0995 30.5726 71.8529 30.1229C71.6063 29.6732 71.2654 29.325 70.8302 29.0784C70.395 28.8173 69.8872 28.6867 69.307 28.6867C68.7267 28.6867 68.2117 28.8173 67.762 29.0784C67.3268 29.325 66.9859 29.6804 66.7393 30.1446C66.4927 30.5943 66.3694 31.1311 66.3694 31.7549V32.2771C66.3694 32.9154 66.5072 33.4812 66.7828 33.9744C67.0729 34.4531 67.4719 34.823 67.9796 35.0842C68.5018 35.3308 69.1111 35.4541 69.8074 35.4541C70.4312 35.4541 70.9752 35.3598 71.4394 35.1712C71.9182 34.9826 72.3534 34.6997 72.745 34.3226L74.5511 36.281C74.0144 36.8902 73.3398 37.3617 72.5274 37.6954C71.7151 38.0145 70.7794 38.1741 69.7204 38.1741ZM84.0398 38V22.768H86.9557L93.4402 33.5174H91.8952L98.2709 22.768H101.165L101.208 38H97.901L97.8792 27.8381H98.4885L93.3966 36.3898H91.8082L86.6075 27.8381H87.3473V38H84.0398ZM110.154 38.1741C108.906 38.1741 107.796 37.913 106.824 37.3907C105.867 36.8685 105.105 36.1577 104.539 35.2582C103.988 34.3443 103.713 33.3071 103.713 32.1466C103.713 30.9715 103.988 29.9343 104.539 29.0349C105.105 28.121 105.867 27.4101 106.824 26.9024C107.796 26.3802 108.906 26.119 110.154 26.119C111.387 26.119 112.489 26.3802 113.461 26.9024C114.433 27.4101 115.195 28.1137 115.746 29.0131C116.297 29.9125 116.573 30.957 116.573 32.1466C116.573 33.3071 116.297 34.3443 115.746 35.2582C115.195 36.1577 114.433 36.8685 113.461 37.3907C112.489 37.913 111.387 38.1741 110.154 38.1741ZM110.154 35.3888C110.719 35.3888 111.227 35.2582 111.677 34.9971C112.126 34.736 112.482 34.3661 112.743 33.8874C113.004 33.3941 113.135 32.8139 113.135 32.1466C113.135 31.4647 113.004 30.8845 112.743 30.4058C112.482 29.927 112.126 29.5571 111.677 29.296C111.227 29.0349 110.719 28.9043 110.154 28.9043C109.588 28.9043 109.08 29.0349 108.63 29.296C108.181 29.5571 107.818 29.927 107.542 30.4058C107.281 30.8845 107.151 31.4647 107.151 32.1466C107.151 32.8139 107.281 33.3941 107.542 33.8874C107.818 34.3661 108.181 34.736 108.63 34.9971C109.08 35.2582 109.588 35.3888 110.154 35.3888ZM123.781 38.1741C122.809 38.1741 121.939 37.9855 121.17 37.6083C120.416 37.2311 119.828 36.6581 119.407 35.8893C118.987 35.1059 118.776 34.1122 118.776 32.9082V26.2931H122.171V32.4077C122.171 33.3796 122.374 34.0977 122.78 34.5619C123.201 35.0116 123.788 35.2365 124.543 35.2365C125.065 35.2365 125.529 35.1277 125.935 34.9101C126.342 34.678 126.661 34.3298 126.893 33.8656C127.125 33.3869 127.241 32.7921 127.241 32.0813V26.2931H130.636V38H127.415V34.7795L128.003 35.7152C127.611 36.5276 127.031 37.1441 126.262 37.5648C125.508 37.971 124.681 38.1741 123.781 38.1741ZM136.957 38L132.04 26.2931H135.543L139.634 36.368H137.893L142.136 26.2931H145.4L140.461 38H136.957ZM152.277 38.1741C150.942 38.1741 149.767 37.913 148.752 37.3907C147.751 36.8685 146.974 36.1577 146.423 35.2582C145.872 34.3443 145.596 33.3071 145.596 32.1466C145.596 30.9715 145.865 29.9343 146.401 29.0349C146.953 28.121 147.7 27.4101 148.643 26.9024C149.586 26.3802 150.652 26.119 151.841 26.119C152.987 26.119 154.017 26.3657 154.931 26.8589C155.86 27.3376 156.592 28.0339 157.129 28.9478C157.666 29.8473 157.934 30.928 157.934 32.1901C157.934 32.3206 157.927 32.473 157.912 32.647C157.898 32.8066 157.883 32.9589 157.869 33.104H148.36V31.1238H156.085L154.779 31.7114C154.779 31.1021 154.656 30.5726 154.409 30.1229C154.163 29.6732 153.822 29.325 153.386 29.0784C152.951 28.8173 152.443 28.6867 151.863 28.6867C151.283 28.6867 150.768 28.8173 150.318 29.0784C149.883 29.325 149.542 29.6804 149.296 30.1446C149.049 30.5943 148.926 31.1311 148.926 31.7549V32.2771C148.926 32.9154 149.063 33.4812 149.339 33.9744C149.629 34.4531 150.028 34.823 150.536 35.0842C151.058 35.3308 151.667 35.4541 152.364 35.4541C152.987 35.4541 153.531 35.3598 153.996 35.1712C154.474 34.9826 154.91 34.6997 155.301 34.3226L157.107 36.281C156.571 36.8902 155.896 37.3617 155.084 37.6954C154.271 38.0145 153.336 38.1741 152.277 38.1741ZM175.187 26.119C176.115 26.119 176.935 26.3076 177.646 26.6848C178.371 27.0475 178.937 27.6132 179.343 28.3821C179.764 29.1364 179.974 30.1084 179.974 31.2979V38H176.58V31.8202C176.58 30.8772 176.384 30.1809 175.992 29.7312C175.6 29.2815 175.049 29.0566 174.338 29.0566C173.845 29.0566 173.403 29.1727 173.011 29.4048C172.619 29.6224 172.315 29.9561 172.097 30.4058C171.879 30.8555 171.771 31.4285 171.771 32.1248V38H168.376V31.8202C168.376 30.8772 168.18 30.1809 167.788 29.7312C167.411 29.2815 166.867 29.0566 166.156 29.0566C165.663 29.0566 165.221 29.1727 164.829 29.4048C164.437 29.6224 164.133 29.9561 163.915 30.4058C163.698 30.8555 163.589 31.4285 163.589 32.1248V38H160.194V26.2931H163.436V29.4918L162.827 28.5562C163.233 27.7583 163.806 27.1563 164.546 26.7501C165.301 26.3294 166.156 26.119 167.114 26.119C168.187 26.119 169.123 26.3947 169.921 26.9459C170.733 27.4827 171.27 28.3095 171.531 29.4266L170.334 29.1002C170.726 28.1862 171.35 27.4609 172.206 26.9242C173.076 26.3874 174.07 26.119 175.187 26.119ZM188.912 38.1741C187.577 38.1741 186.402 37.913 185.387 37.3907C184.386 36.8685 183.609 36.1577 183.058 35.2582C182.507 34.3443 182.231 33.3071 182.231 32.1466C182.231 30.9715 182.5 29.9343 183.036 29.0349C183.588 28.121 184.335 27.4101 185.278 26.9024C186.221 26.3802 187.287 26.119 188.476 26.119C189.622 26.119 190.652 26.3657 191.566 26.8589C192.495 27.3376 193.227 28.0339 193.764 28.9478C194.301 29.8473 194.569 30.928 194.569 32.1901C194.569 32.3206 194.562 32.473 194.547 32.647C194.533 32.8066 194.518 32.9589 194.504 33.104H184.995V31.1238H192.72L191.414 31.7114C191.414 31.1021 191.291 30.5726 191.044 30.1229C190.798 29.6732 190.457 29.325 190.021 29.0784C189.586 28.8173 189.078 28.6867 188.498 28.6867C187.918 28.6867 187.403 28.8173 186.953 29.0784C186.518 29.325 186.177 29.6804 185.931 30.1446C185.684 30.5943 185.561 31.1311 185.561 31.7549V32.2771C185.561 32.9154 185.698 33.4812 185.974 33.9744C186.264 34.4531 186.663 34.823 187.171 35.0842C187.693 35.3308 188.302 35.4541 188.999 35.4541C189.622 35.4541 190.166 35.3598 190.631 35.1712C191.109 34.9826 191.545 34.6997 191.936 34.3226L193.742 36.281C193.206 36.8902 192.531 37.3617 191.719 37.6954C190.906 38.0145 189.971 38.1741 188.912 38.1741ZM203.945 26.119C204.873 26.119 205.7 26.3076 206.425 26.6848C207.165 27.0475 207.745 27.6132 208.166 28.3821C208.587 29.1364 208.797 30.1084 208.797 31.2979V38H205.403V31.8202C205.403 30.8772 205.192 30.1809 204.772 29.7312C204.365 29.2815 203.785 29.0566 203.031 29.0566C202.494 29.0566 202.008 29.1727 201.573 29.4048C201.152 29.6224 200.819 29.9633 200.572 30.4275C200.34 30.8917 200.224 31.4865 200.224 32.2118V38H196.829V26.2931H200.071V29.5354L199.462 28.5562C199.883 27.7728 200.485 27.1708 201.268 26.7501C202.052 26.3294 202.944 26.119 203.945 26.119ZM216.661 38.1741C215.283 38.1741 214.21 37.8259 213.441 37.1296C212.672 36.4188 212.288 35.367 212.288 33.9744V23.7037H215.682V33.9309C215.682 34.4241 215.813 34.8085 216.074 35.0842C216.335 35.3453 216.69 35.4758 217.14 35.4758C217.677 35.4758 218.134 35.3308 218.511 35.0406L219.425 37.4342C219.077 37.6809 218.656 37.8694 218.163 38C217.684 38.1161 217.184 38.1741 216.661 38.1741ZM210.482 29.1654V26.5542H218.598V29.1654H210.482ZM232.52 38.1741C231.417 38.1741 230.423 37.9275 229.538 37.4342C228.654 36.9265 227.95 36.2229 227.428 35.3235C226.92 34.4241 226.666 33.3651 226.666 32.1466C226.666 30.9135 226.92 29.8473 227.428 28.9478C227.95 28.0484 228.654 27.3521 229.538 26.8589C230.423 26.3657 231.417 26.119 232.52 26.119C233.506 26.119 234.369 26.3366 235.109 26.7718C235.849 27.207 236.422 27.8671 236.828 28.752C237.234 29.6369 237.437 30.7684 237.437 32.1466C237.437 33.5102 237.241 34.6417 236.85 35.5411C236.458 36.426 235.892 37.0861 235.152 37.5213C234.427 37.9565 233.55 38.1741 232.52 38.1741ZM233.107 35.3888C233.658 35.3888 234.159 35.2582 234.608 34.9971C235.058 34.736 235.414 34.3661 235.675 33.8874C235.95 33.3941 236.088 32.8139 236.088 32.1466C236.088 31.4647 235.95 30.8845 235.675 30.4058C235.414 29.927 235.058 29.5571 234.608 29.296C234.159 29.0349 233.658 28.9043 233.107 28.9043C232.541 28.9043 232.034 29.0349 231.584 29.296C231.134 29.5571 230.771 29.927 230.496 30.4058C230.235 30.8845 230.104 31.4647 230.104 32.1466C230.104 32.8139 230.235 33.3941 230.496 33.8874C230.771 34.3661 231.134 34.736 231.584 34.9971C232.034 35.2582 232.541 35.3888 233.107 35.3888ZM236.175 38V35.6064L236.24 32.1248L236.023 28.665V21.8541H239.417V38H236.175ZM241.972 29.0784L243.408 23.856L243.887 25.8362C243.263 25.8362 242.748 25.6548 242.342 25.2922C241.95 24.915 241.754 24.4073 241.754 23.769C241.754 23.1452 241.957 22.6447 242.363 22.2675C242.77 21.8758 243.27 21.68 243.865 21.68C244.474 21.68 244.975 21.8758 245.366 22.2675C245.758 22.6447 245.954 23.1452 245.954 23.769C245.954 23.9575 245.939 24.1461 245.91 24.3347C245.896 24.5088 245.845 24.7191 245.758 24.9658C245.685 25.2124 245.562 25.5388 245.388 25.945L244.126 29.0784H241.972ZM253.533 38.1741C252.198 38.1741 251.023 37.913 250.008 37.3907C249.007 36.8685 248.231 36.1577 247.679 35.2582C247.128 34.3443 246.853 33.3071 246.853 32.1466C246.853 30.9715 247.121 29.9343 247.658 29.0349C248.209 28.121 248.956 27.4101 249.899 26.9024C250.842 26.3802 251.908 26.119 253.098 26.119C254.244 26.119 255.274 26.3657 256.188 26.8589C257.116 27.3376 257.849 28.0339 258.385 28.9478C258.922 29.8473 259.19 30.928 259.19 32.1901C259.19 32.3206 259.183 32.473 259.169 32.647C259.154 32.8066 259.14 32.9589 259.125 33.104H249.616V31.1238H257.341L256.035 31.7114C256.035 31.1021 255.912 30.5726 255.665 30.1229C255.419 29.6732 255.078 29.325 254.643 29.0784C254.207 28.8173 253.7 28.6867 253.119 28.6867C252.539 28.6867 252.024 28.8173 251.574 29.0784C251.139 29.325 250.798 29.6804 250.552 30.1446C250.305 30.5943 250.182 31.1311 250.182 31.7549V32.2771C250.182 32.9154 250.32 33.4812 250.595 33.9744C250.885 34.4531 251.284 34.823 251.792 35.0842C252.314 35.3308 252.924 35.4541 253.62 35.4541C254.244 35.4541 254.788 35.3598 255.252 35.1712C255.731 34.9826 256.166 34.6997 256.558 34.3226L258.364 36.281C257.827 36.8902 257.152 37.3617 256.34 37.6954C255.528 38.0145 254.592 38.1741 253.533 38.1741ZM268.566 26.119C269.494 26.119 270.321 26.3076 271.047 26.6848C271.786 27.0475 272.367 27.6132 272.787 28.3821C273.208 29.1364 273.418 30.1084 273.418 31.2979V38H270.024V31.8202C270.024 30.8772 269.814 30.1809 269.393 29.7312C268.987 29.2815 268.406 29.0566 267.652 29.0566C267.115 29.0566 266.629 29.1727 266.194 29.4048C265.773 29.6224 265.44 29.9633 265.193 30.4275C264.961 30.8917 264.845 31.4865 264.845 32.2118V38H261.45V26.2931H264.693V29.5354L264.083 28.5562C264.504 27.7728 265.106 27.1708 265.89 26.7501C266.673 26.3294 267.565 26.119 268.566 26.119ZM281.283 38.1741C279.905 38.1741 278.831 37.8259 278.062 37.1296C277.293 36.4188 276.909 35.367 276.909 33.9744V23.7037H280.303V33.9309C280.303 34.4241 280.434 34.8085 280.695 35.0842C280.956 35.3453 281.312 35.4758 281.761 35.4758C282.298 35.4758 282.755 35.3308 283.132 35.0406L284.046 37.4342C283.698 37.6809 283.277 37.8694 282.784 38C282.305 38.1161 281.805 38.1741 281.283 38.1741ZM275.103 29.1654V26.5542H283.219V29.1654H275.103ZM285.952 38V26.2931H289.194V29.6006L288.737 28.6432C289.085 27.8163 289.644 27.1925 290.413 26.7718C291.181 26.3366 292.117 26.119 293.22 26.119V29.2525C293.075 29.238 292.944 29.2307 292.828 29.2307C292.712 29.2162 292.589 29.209 292.458 29.209C291.53 29.209 290.775 29.4773 290.195 30.0141C289.629 30.5363 289.346 31.3559 289.346 32.473V38H285.952ZM300.942 38.1741C299.607 38.1741 298.432 37.913 297.417 37.3907C296.416 36.8685 295.639 36.1577 295.088 35.2582C294.537 34.3443 294.261 33.3071 294.261 32.1466C294.261 30.9715 294.53 29.9343 295.066 29.0349C295.618 28.121 296.365 27.4101 297.308 26.9024C298.251 26.3802 299.317 26.119 300.506 26.119C301.652 26.119 302.682 26.3657 303.596 26.8589C304.525 27.3376 305.257 28.0339 305.794 28.9478C306.331 29.8473 306.599 30.928 306.599 32.1901C306.599 32.3206 306.592 32.473 306.577 32.647C306.563 32.8066 306.548 32.9589 306.534 33.104H297.025V31.1238H304.75L303.444 31.7114C303.444 31.1021 303.321 30.5726 303.074 30.1229C302.828 29.6732 302.487 29.325 302.051 29.0784C301.616 28.8173 301.108 28.6867 300.528 28.6867C299.948 28.6867 299.433 28.8173 298.983 29.0784C298.548 29.325 298.207 29.6804 297.961 30.1446C297.714 30.5943 297.591 31.1311 297.591 31.7549V32.2771C297.591 32.9154 297.728 33.4812 298.004 33.9744C298.294 34.4531 298.693 34.823 299.201 35.0842C299.723 35.3308 300.332 35.4541 301.029 35.4541C301.652 35.4541 302.196 35.3598 302.661 35.1712C303.139 34.9826 303.575 34.6997 303.966 34.3226L305.772 36.281C305.236 36.8902 304.561 37.3617 303.749 37.6954C302.936 38.0145 302.001 38.1741 300.942 38.1741ZM298.461 24.7917L301.399 21.6582H305.054L301.116 24.7917H298.461ZM314.669 38.1741C313.335 38.1741 312.159 37.913 311.144 37.3907C310.143 36.8685 309.367 36.1577 308.816 35.2582C308.264 34.3443 307.989 33.3071 307.989 32.1466C307.989 30.9715 308.257 29.9343 308.794 29.0349C309.345 28.121 310.092 27.4101 311.035 26.9024C311.978 26.3802 313.044 26.119 314.234 26.119C315.38 26.119 316.41 26.3657 317.324 26.8589C318.252 27.3376 318.985 28.0339 319.522 28.9478C320.058 29.8473 320.327 30.928 320.327 32.1901C320.327 32.3206 320.319 32.473 320.305 32.647C320.29 32.8066 320.276 32.9589 320.261 33.104H310.752V31.1238H318.477L317.172 31.7114C317.172 31.1021 317.048 30.5726 316.802 30.1229C316.555 29.6732 316.214 29.325 315.779 29.0784C315.344 28.8173 314.836 28.6867 314.256 28.6867C313.675 28.6867 313.16 28.8173 312.711 29.0784C312.276 29.325 311.935 29.6804 311.688 30.1446C311.441 30.5943 311.318 31.1311 311.318 31.7549V32.2771C311.318 32.9154 311.456 33.4812 311.732 33.9744C312.022 34.4531 312.421 34.823 312.928 35.0842C313.451 35.3308 314.06 35.4541 314.756 35.4541C315.38 35.4541 315.924 35.3598 316.388 35.1712C316.867 34.9826 317.302 34.6997 317.694 34.3226L319.5 36.281C318.963 36.8902 318.289 37.3617 317.476 37.6954C316.664 38.0145 315.728 38.1741 314.669 38.1741Z" fill="#1080D3"/>
<rect x="26" y="72" width="601" height="353" rx="4" fill="white"/>
<rect x="26.5" y="72.5" width="600" height="352" rx="3.5" stroke="#B5B0B0" stroke-opacity="0.43"/>
<rect x="35" y="64" width="232" height="28" fill="white"/>
<path d="M64.3296 76.6795C64.3296 77.4978 64.2105 78.2856 63.9723 79.0428C63.7342 79.8001 63.3555 80.4779 62.8365 81.0764C62.3235 81.6687 61.6518 82.1389 60.8212 82.487C59.9968 82.829 58.9953 83 57.8167 83H52.6046V82.1939L53.5939 82.1206C53.7282 82.1084 53.829 82.0596 53.8962 81.9741C53.9694 81.8886 54.0061 81.8 54.0061 81.7084V71.7055C54.0061 71.6139 53.9694 71.5254 53.8962 71.4399C53.829 71.3483 53.7282 71.2994 53.5939 71.2933L52.6046 71.22V70.4139H57.4411C58.7541 70.4139 59.9296 70.6368 60.9678 71.0826C62.0059 71.5223 62.8243 72.2032 63.4227 73.1254C64.0273 74.0475 64.3296 75.2322 64.3296 76.6795ZM62.2044 76.7161C62.2044 75.4032 62.0029 74.3528 61.5998 73.565C61.2029 72.7712 60.638 72.1971 59.9052 71.8429C59.1785 71.4887 58.3205 71.3116 57.3312 71.3116H55.9022V82.1023L57.4228 82.084C58.3877 82.0718 59.2274 81.8886 59.9419 81.5344C60.6563 81.1741 61.2121 80.6031 61.609 79.8214C62.0059 79.0398 62.2044 78.0047 62.2044 76.7161ZM73.618 82.0657C73.0928 82.3893 72.5249 82.6641 71.9142 82.8901C71.3096 83.116 70.6898 83.229 70.0547 83.229C69.2974 83.229 68.586 83.0611 67.9204 82.7252C67.2608 82.3832 66.7265 81.8672 66.3173 81.1771C65.9082 80.4871 65.7036 79.6199 65.7036 78.5756C65.7036 77.5986 65.8929 76.7467 66.2715 76.02C66.6501 75.2933 67.1723 74.7314 67.8379 74.3345C68.5035 73.9314 69.2608 73.7299 70.1096 73.7299C71.276 73.7299 72.1523 74.0933 72.7386 74.82C73.3248 75.5406 73.618 76.4596 73.618 77.5772C73.618 77.6383 73.618 77.7207 73.618 77.8245C73.618 77.9222 73.6119 78.0138 73.5996 78.0993H67.5173C67.5173 78.5756 67.5662 79.052 67.6639 79.5283C67.7677 79.9985 67.9387 80.426 68.1768 80.8107C68.415 81.1954 68.7356 81.5038 69.1387 81.7359C69.5417 81.968 70.0455 82.084 70.6501 82.084C71.1875 82.084 71.7096 81.9618 72.2165 81.7176C72.7294 81.4672 73.1966 81.2016 73.618 80.9206V82.0657ZM71.7401 77.2566V76.8444C71.7401 76.2276 71.5905 75.7085 71.2913 75.2871C70.9982 74.8658 70.5402 74.6551 69.9173 74.6551C69.3005 74.6551 68.7753 74.8872 68.3417 75.3513C67.9081 75.8154 67.6669 76.4505 67.6181 77.2566H71.7401ZM81.0835 80.2794C81.0835 81.2016 80.7659 81.9252 80.1308 82.4504C79.4957 82.9695 78.6194 83.229 77.5019 83.229C76.9278 83.229 76.3965 83.1679 75.908 83.0458C75.4256 82.9298 75.0897 82.8321 74.9004 82.7527V80.2611H75.853L76.0821 81.855C76.2714 81.9771 76.5034 82.0962 76.7782 82.2122C77.0591 82.3221 77.3828 82.3771 77.7492 82.3771C78.2866 82.3771 78.7019 82.2275 78.995 81.9283C79.2881 81.629 79.4347 81.2932 79.4347 80.9206C79.4347 80.426 79.2576 80.0535 78.9034 79.8031C78.5492 79.5466 78.0454 79.2627 77.392 78.9512L77.1446 78.8321C76.4607 78.5085 75.9355 78.1726 75.5691 77.8245C75.2088 77.4703 75.0286 77.0123 75.0286 76.4505C75.0286 75.6139 75.3218 74.9513 75.908 74.4627C76.4943 73.9742 77.3278 73.7299 78.4087 73.7299C78.9583 73.7299 79.4469 73.7818 79.8744 73.8856C80.3079 73.9834 80.6194 74.075 80.8087 74.1604V76.3772H79.8286L79.682 75.0673C79.5476 74.9635 79.3492 74.8658 79.0866 74.7742C78.824 74.6826 78.5461 74.6368 78.253 74.6368C77.74 74.6368 77.3584 74.7559 77.108 74.994C76.8576 75.2261 76.7324 75.5253 76.7324 75.8917C76.7324 76.3131 76.882 76.649 77.1813 76.8993C77.4866 77.1436 78.0362 77.4459 78.8301 77.8062C79.4835 78.1054 80.0209 78.4413 80.4423 78.8138C80.8698 79.1802 81.0835 79.6688 81.0835 80.2794ZM89.8406 81.2321V82.3038C89.4192 82.5298 88.9429 82.7405 88.4116 82.9359C87.8864 83.1313 87.3063 83.229 86.6712 83.229C85.7979 83.229 85.0376 83.0244 84.3903 82.6153C83.7491 82.2061 83.2514 81.6504 82.8972 80.9481C82.5491 80.2397 82.3751 79.4367 82.3751 78.539C82.3751 77.4886 82.5827 76.6062 82.998 75.8917C83.4193 75.1772 83.972 74.6398 84.656 74.2795C85.346 73.9131 86.091 73.7299 86.891 73.7299C87.7154 73.7299 88.4055 73.8918 88.9612 74.2154C89.5231 74.533 89.804 74.9971 89.804 75.6078C89.804 75.9742 89.6879 76.252 89.4559 76.4413C89.2299 76.6245 88.9765 76.7161 88.6956 76.7161C88.488 76.7161 88.3078 76.6825 88.1551 76.6154C88.0025 76.5421 87.8681 76.4688 87.7521 76.3955V74.765C87.4651 74.6001 87.2025 74.5177 86.9643 74.5177C86.4086 74.5177 85.9292 74.6826 85.5262 75.0123C85.1292 75.336 84.8239 75.7818 84.6102 76.3497C84.3964 76.9177 84.2896 77.565 84.2896 78.2917C84.2896 78.9817 84.4056 79.6138 84.6376 80.1878C84.8697 80.7558 85.2147 81.2077 85.6727 81.5435C86.1368 81.8794 86.7109 82.0473 87.3948 82.0473C87.8284 82.0473 88.2437 81.9771 88.6406 81.8367C89.0376 81.6962 89.4376 81.4947 89.8406 81.2321ZM97.6176 75.8734H96.8848C96.7687 75.7329 96.6283 75.6139 96.4634 75.5162C96.3046 75.4123 96.1092 75.3604 95.8771 75.3604C95.5779 75.3604 95.2695 75.4642 94.952 75.6719C94.6405 75.8795 94.323 76.1635 93.9993 76.5238V81.8C93.9993 82.0626 94.1306 82.2 94.3932 82.2122L95.6298 82.2672V83H90.9398V82.2855L91.865 82.2122C91.9749 82.2 92.0665 82.1573 92.1398 82.084C92.2192 82.0107 92.2589 81.916 92.2589 81.8V75.2871H90.9032V74.6734L93.2299 73.9589H93.9993V75.6261C94.1825 75.4246 94.4115 75.1742 94.6863 74.8749C94.9611 74.5757 95.2543 74.3101 95.5657 74.078C95.8771 73.846 96.1794 73.7299 96.4726 73.7299C96.668 73.7299 96.8787 73.7605 97.1046 73.8215C97.3306 73.8826 97.5015 73.9467 97.6176 74.0139V75.8734ZM101.905 70.8628C101.905 71.1803 101.795 71.4551 101.575 71.6872C101.355 71.9132 101.086 72.0261 100.769 72.0261C100.451 72.0261 100.176 71.9132 99.9443 71.6872C99.7183 71.4551 99.6053 71.1803 99.6053 70.8628C99.6053 70.5391 99.7183 70.2674 99.9443 70.0475C100.176 69.8277 100.451 69.7178 100.769 69.7178C101.086 69.7178 101.355 69.8277 101.575 70.0475C101.795 70.2674 101.905 70.5391 101.905 70.8628ZM102.866 83H98.4603V82.2672L99.3763 82.2122C99.6389 82.1939 99.7702 82.0565 99.7702 81.8V75.1039H98.4786V74.4444L100.769 73.7299H101.511V81.8C101.511 81.916 101.547 82.0107 101.621 82.084C101.7 82.1573 101.795 82.2 101.905 82.2122L102.866 82.2672V83ZM113.364 78.3466C113.364 79.3298 113.175 80.1878 112.796 80.9206C112.417 81.6535 111.874 82.2214 111.165 82.6244C110.457 83.0275 109.608 83.229 108.619 83.229C108.393 83.229 108.149 83.2137 107.886 83.1832C107.63 83.1527 107.41 83.1221 107.227 83.0916C107.043 83.0672 106.952 83.055 106.952 83.055V85.8488C106.952 85.9648 106.991 86.0564 107.071 86.1236C107.15 86.1908 107.248 86.2305 107.364 86.2427L108.472 86.3618V87.0854H103.911V86.3618L104.808 86.2427C105.071 86.2244 105.202 86.0931 105.202 85.8488V75.2871H103.911V74.6734L106.219 73.9589H106.952V74.8933C106.952 74.8933 107.028 74.8352 107.181 74.7192C107.34 74.6032 107.55 74.4688 107.813 74.3162C108.082 74.1574 108.384 74.02 108.72 73.904C109.062 73.7879 109.416 73.7299 109.782 73.7299C110.43 73.7299 111.022 73.9223 111.559 74.307C112.103 74.6856 112.539 75.22 112.869 75.91C113.199 76.6001 113.364 77.4123 113.364 78.3466ZM111.486 78.6123C111.486 77.965 111.385 77.3726 111.184 76.8352C110.988 76.2978 110.695 75.8673 110.304 75.5436C109.92 75.2139 109.44 75.049 108.866 75.049C108.555 75.049 108.253 75.0948 107.959 75.1864C107.666 75.278 107.425 75.3726 107.236 75.4704C107.046 75.562 106.952 75.6078 106.952 75.6078V82.0657C106.952 82.0657 107.108 82.1145 107.419 82.2122C107.736 82.3099 108.088 82.3588 108.472 82.3588C109.162 82.3588 109.727 82.1817 110.167 81.8275C110.613 81.4733 110.943 81.0122 111.156 80.4443C111.376 79.8703 111.486 79.2596 111.486 78.6123ZM120.261 81.855V82.6061C120.261 82.6061 120.142 82.658 119.904 82.7618C119.672 82.8657 119.364 82.9695 118.979 83.0733C118.6 83.1771 118.185 83.229 117.733 83.229C117.031 83.229 116.518 83.0641 116.194 82.7344C115.877 82.3985 115.718 81.8611 115.718 81.1222V74.8933H114.518V74.2795L115.8 73.675L116.643 71.6872H117.468V73.9589H120.115V74.8933H117.468V80.1329C117.468 80.8779 117.593 81.4061 117.843 81.7176C118.094 82.0229 118.469 82.1756 118.97 82.1756C119.336 82.1756 119.642 82.1237 119.886 82.0199C120.136 81.9099 120.261 81.855 120.261 81.855ZM124.475 70.8628C124.475 71.1803 124.365 71.4551 124.145 71.6872C123.926 71.9132 123.657 72.0261 123.339 72.0261C123.022 72.0261 122.747 71.9132 122.515 71.6872C122.289 71.4551 122.176 71.1803 122.176 70.8628C122.176 70.5391 122.289 70.2674 122.515 70.0475C122.747 69.8277 123.022 69.7178 123.339 69.7178C123.657 69.7178 123.926 69.8277 124.145 70.0475C124.365 70.2674 124.475 70.5391 124.475 70.8628ZM125.437 83H121.031V82.2672L121.947 82.2122C122.21 82.1939 122.341 82.0565 122.341 81.8V75.1039H121.049V74.4444L123.339 73.7299H124.081V81.8C124.081 81.916 124.118 82.0107 124.191 82.084C124.271 82.1573 124.365 82.2 124.475 82.2122L125.437 82.2672V83ZM135.651 78.4932C135.651 79.3787 135.467 80.1817 135.101 80.9023C134.735 81.6168 134.215 82.1847 133.544 82.6061C132.878 83.0214 132.087 83.229 131.171 83.229C130.261 83.229 129.474 83.0214 128.808 82.6061C128.142 82.1909 127.629 81.626 127.269 80.9115C126.909 80.197 126.729 79.3909 126.729 78.4932C126.729 77.6016 126.909 76.7955 127.269 76.0749C127.635 75.3543 128.154 74.7833 128.826 74.362C129.504 73.9406 130.304 73.7299 131.226 73.7299C132.161 73.7299 132.957 73.9437 133.617 74.3711C134.277 74.7986 134.78 75.3726 135.128 76.0932C135.477 76.8138 135.651 77.6138 135.651 78.4932ZM133.699 78.4749C133.699 77.7909 133.608 77.1528 133.425 76.5604C133.248 75.9681 132.973 75.4887 132.6 75.1223C132.234 74.7559 131.77 74.5727 131.208 74.5727C130.628 74.5727 130.151 74.7559 129.779 75.1223C129.412 75.4887 129.141 75.9681 128.964 76.5604C128.787 77.1528 128.698 77.7909 128.698 78.4749C128.698 79.1527 128.787 79.7909 128.964 80.3894C129.147 80.9817 129.422 81.4611 129.788 81.8275C130.161 82.1939 130.628 82.3771 131.19 82.3771C131.764 82.3771 132.234 82.1939 132.6 81.8275C132.973 81.4611 133.248 80.9817 133.425 80.3894C133.608 79.797 133.699 79.1588 133.699 78.4749ZM146.551 83H142.411V82.2672L143.199 82.2122C143.308 82.2 143.4 82.1573 143.473 82.084C143.553 82.0107 143.592 81.916 143.592 81.8V76.9177C143.592 76.3253 143.455 75.8765 143.18 75.5711C142.905 75.2597 142.441 75.1039 141.788 75.1039C141.434 75.1039 141.079 75.1559 140.725 75.2597C140.377 75.3574 140.044 75.4856 139.727 75.6444V81.8C139.727 82.0565 139.858 82.1939 140.121 82.2122L140.908 82.2672V83H136.667V82.2672L137.583 82.2122C137.846 82.1939 137.977 82.0565 137.977 81.8V75.2871H136.667V74.6734L138.957 73.9589H139.727V74.8933C140.252 74.594 140.789 74.3253 141.339 74.0872C141.895 73.849 142.389 73.7299 142.823 73.7299C143.641 73.7299 144.264 73.9864 144.692 74.4994C145.119 75.0062 145.333 75.7146 145.333 76.6245V81.8C145.333 81.916 145.369 82.0107 145.443 82.084C145.522 82.1573 145.617 82.2 145.727 82.2122L146.551 82.2672V83ZM165.476 83H162.526V82.0015C162.099 82.3313 161.644 82.6183 161.162 82.8626C160.679 83.1069 160.166 83.229 159.623 83.229C158.994 83.229 158.45 83.0977 157.992 82.8351C157.54 82.5664 157.168 82.2122 156.875 81.7725C156.588 81.3329 156.374 80.8474 156.233 80.3161C156.093 79.7848 156.023 79.2535 156.023 78.7222C156.023 77.8734 156.197 77.0703 156.545 76.3131C156.893 75.5497 157.421 74.9299 158.13 74.4536C158.838 73.9711 159.73 73.7299 160.804 73.7299C161.104 73.7299 161.427 73.7605 161.775 73.8215C162.13 73.8765 162.38 73.9223 162.526 73.9589V70.5239H161.107V69.901L163.525 69.1773H164.276V81.8C164.276 82.0565 164.407 82.1939 164.67 82.2122L165.476 82.2672V83ZM162.526 81.2962V74.9116C162.368 74.8566 162.13 74.7986 161.812 74.7375C161.501 74.6704 161.207 74.6368 160.933 74.6368C160.004 74.6368 159.262 74.9818 158.707 75.6719C158.151 76.3558 157.873 77.2657 157.873 78.4016C157.873 79.4214 158.111 80.2672 158.588 80.939C159.064 81.6107 159.733 81.9466 160.594 81.9466C160.972 81.9466 161.326 81.8764 161.656 81.7359C161.992 81.5893 162.282 81.4428 162.526 81.2962ZM176.248 83H173.271V81.9283C173.058 82.0931 172.786 82.2763 172.456 82.4779C172.126 82.6794 171.772 82.8534 171.393 83C171.015 83.1527 170.639 83.229 170.267 83.229C169.461 83.229 168.826 82.9878 168.361 82.5054C167.903 82.0168 167.674 81.2443 167.674 80.1878V75.1039H166.365V74.4627L168.673 73.7299H169.424V79.8306C169.424 80.4962 169.558 81.0153 169.827 81.3878C170.102 81.7603 170.572 81.9466 171.238 81.9466C171.622 81.9466 172.001 81.8825 172.374 81.7542C172.746 81.6199 173.045 81.4977 173.271 81.3878V75.1039H171.952V74.4627L174.242 73.7299H175.012V81.8C175.012 81.916 175.051 82.0107 175.131 82.084C175.216 82.1573 175.314 82.2 175.424 82.2122L176.248 82.2672V83ZM200.633 83H196.428V82.2672L197.216 82.2122C197.479 82.1939 197.61 82.0565 197.61 81.8V77.0184C197.61 76.4383 197.488 75.9742 197.243 75.6261C197.005 75.278 196.572 75.1039 195.943 75.1039C195.631 75.1039 195.289 75.1528 194.917 75.2505C194.55 75.3482 194.224 75.4734 193.937 75.6261V81.8C193.937 82.0565 194.068 82.1939 194.331 82.2122L195.118 82.2672V83H191.005V82.2672L191.793 82.2122C192.056 82.1939 192.187 82.0565 192.187 81.8V76.8993C192.187 76.368 192.062 75.9375 191.811 75.6078C191.561 75.2719 191.137 75.1039 190.538 75.1039C190.184 75.1039 189.815 75.165 189.43 75.2871C189.045 75.4032 188.746 75.5223 188.532 75.6444V81.8C188.532 82.0565 188.663 82.1939 188.926 82.2122L189.714 82.2672V83H185.473V82.2672L186.389 82.2122C186.651 82.1939 186.783 82.0565 186.783 81.8V75.2871H185.491V74.6734L187.763 73.9589H188.532V74.8933C188.813 74.7223 189.128 74.5482 189.476 74.3711C189.83 74.194 190.19 74.0444 190.557 73.9223C190.923 73.794 191.268 73.7299 191.592 73.7299C192.135 73.7299 192.575 73.8704 192.911 74.1513C193.247 74.4261 193.494 74.7192 193.653 75.0307C193.903 74.8719 194.221 74.6917 194.605 74.4902C194.99 74.2826 195.387 74.1055 195.796 73.9589C196.211 73.8063 196.584 73.7299 196.914 73.7299C197.573 73.7299 198.077 73.8826 198.425 74.1879C198.773 74.4872 199.011 74.8597 199.14 75.3055C199.268 75.7452 199.332 76.1787 199.332 76.6062V81.8C199.332 81.916 199.369 82.0107 199.442 82.084C199.521 82.1573 199.616 82.2 199.726 82.2122L200.633 82.2672V83ZM210.617 78.4932C210.617 79.3787 210.434 80.1817 210.068 80.9023C209.701 81.6168 209.182 82.1847 208.51 82.6061C207.845 83.0214 207.054 83.229 206.138 83.229C205.228 83.229 204.44 83.0214 203.775 82.6061C203.109 82.1909 202.596 81.626 202.236 80.9115C201.875 80.197 201.695 79.3909 201.695 78.4932C201.695 77.6016 201.875 76.7955 202.236 76.0749C202.602 75.3543 203.121 74.7833 203.793 74.362C204.471 73.9406 205.271 73.7299 206.193 73.7299C207.127 73.7299 207.924 73.9437 208.584 74.3711C209.243 74.7986 209.747 75.3726 210.095 76.0932C210.443 76.8138 210.617 77.6138 210.617 78.4932ZM208.666 78.4749C208.666 77.7909 208.575 77.1528 208.391 76.5604C208.214 75.9681 207.939 75.4887 207.567 75.1223C207.201 74.7559 206.736 74.5727 206.175 74.5727C205.594 74.5727 205.118 74.7559 204.746 75.1223C204.379 75.4887 204.107 75.9681 203.93 76.5604C203.753 77.1528 203.665 77.7909 203.665 78.4749C203.665 79.1527 203.753 79.7909 203.93 80.3894C204.114 80.9817 204.388 81.4611 204.755 81.8275C205.127 82.1939 205.594 82.3771 206.156 82.3771C206.73 82.3771 207.201 82.1939 207.567 81.8275C207.939 81.4611 208.214 80.9817 208.391 80.3894C208.575 79.797 208.666 79.1588 208.666 78.4749ZM221.536 83H218.559V81.9283C218.345 82.0931 218.074 82.2763 217.744 82.4779C217.414 82.6794 217.06 82.8534 216.681 83C216.303 83.1527 215.927 83.229 215.555 83.229C214.749 83.229 214.113 82.9878 213.649 82.5054C213.191 82.0168 212.962 81.2443 212.962 80.1878V75.1039H211.652V74.4627L213.961 73.7299H214.712V79.8306C214.712 80.4962 214.846 81.0153 215.115 81.3878C215.39 81.7603 215.86 81.9466 216.526 81.9466C216.91 81.9466 217.289 81.8825 217.661 81.7542C218.034 81.6199 218.333 81.4977 218.559 81.3878V75.1039H217.24V74.4627L219.53 73.7299H220.3V81.8C220.3 81.916 220.339 82.0107 220.419 82.084C220.504 82.1573 220.602 82.2 220.712 82.2122L221.536 82.2672V83ZM231.676 74.6917L230.678 74.8017L227.399 83H226.18L223.158 74.8017L222.122 74.6917V73.9589H226.272V74.6917L225.374 74.7467C225.173 74.765 225.072 74.8658 225.072 75.049C225.072 75.0734 225.078 75.1101 225.09 75.1589L227.188 81.0306L229.496 75.1589C229.515 75.1223 229.524 75.0826 229.524 75.0398C229.524 74.8566 229.429 74.7589 229.24 74.7467L228.397 74.6917V73.9589H231.676V74.6917Z" fill="#0072C1"/>
<path d="M61.4738 118.551C60.8735 118.363 60.3982 118.232 60.048 118.157C59.6979 118.069 59.2726 118.025 58.7724 118.025C57.7593 118.025 56.9777 118.438 56.4274 119.264C55.8771 120.089 55.6019 121.221 55.6019 122.659C55.6019 123.897 55.8333 124.967 56.296 125.867C56.7588 126.768 57.5342 127.218 58.6223 127.218C59.1601 127.218 59.6603 127.162 60.1231 127.049C60.5983 126.936 61.0298 126.799 61.4175 126.636L62.3368 128.437C61.849 128.687 61.2612 128.887 60.5733 129.038C59.8855 129.188 59.2789 129.263 58.7536 129.263C56.765 129.263 55.3205 128.625 54.42 127.349C53.5196 126.073 53.0693 124.516 53.0693 122.678C53.0693 120.714 53.5633 119.107 54.5514 117.857C55.5519 116.606 56.9839 115.981 58.8474 115.981C59.2226 115.981 59.7416 116.043 60.4045 116.168C61.0673 116.293 61.6739 116.506 62.2242 116.806L61.4738 118.551ZM68.4858 129.225C67.0475 129.225 65.9219 128.794 65.109 127.931C64.3086 127.055 63.9084 125.886 63.9084 124.423C63.9084 122.972 64.3273 121.815 65.1653 120.952C66.0157 120.089 67.1726 119.658 68.6359 119.658C70.1492 119.658 71.3186 120.108 72.144 121.008C72.9819 121.896 73.4009 123.066 73.4009 124.516C73.4009 125.967 72.9507 127.118 72.0502 127.968C71.1497 128.806 69.9616 129.225 68.4858 129.225ZM70.8871 124.516C70.8871 123.653 70.6932 122.978 70.3055 122.49C69.9303 121.99 69.3925 121.74 68.6922 121.74C67.9793 121.74 67.4227 121.959 67.0225 122.396C66.6223 122.834 66.4222 123.503 66.4222 124.404C66.4222 125.304 66.591 125.986 66.9287 126.449C67.2789 126.911 67.8104 127.143 68.5233 127.143C69.2237 127.143 69.7927 126.936 70.2305 126.524C70.6682 126.098 70.8871 125.429 70.8871 124.516ZM79.7576 121.627C78.9072 121.627 78.3131 121.927 77.9754 122.528C77.6502 123.128 77.4877 123.747 77.4877 124.385C77.4877 125.098 77.6377 125.736 77.9379 126.299C78.2381 126.861 78.8446 127.143 79.7576 127.143C80.0453 127.143 80.3454 127.08 80.6581 126.955C80.9833 126.818 81.2834 126.661 81.5586 126.486V122.284C81.2834 122.096 80.9833 121.94 80.6581 121.815C80.3454 121.69 80.0453 121.627 79.7576 121.627ZM84.0161 115.755V129H82.7405L82.0651 128.118C81.6524 128.468 81.1646 128.744 80.6018 128.944C80.0515 129.131 79.5513 129.225 79.101 129.225C77.7753 129.225 76.756 128.762 76.0431 127.837C75.3303 126.911 74.9738 125.761 74.9738 124.385C74.9738 123.009 75.349 121.859 76.0994 120.933C76.8623 120.008 77.9004 119.545 79.2136 119.545C79.5513 119.545 79.9327 119.607 80.3579 119.733C80.7832 119.845 81.1834 120.008 81.5586 120.22V115.962L84.0161 115.755ZM91.1599 129.225C89.584 129.225 88.3396 128.794 87.4266 127.931C86.5262 127.068 86.0759 125.911 86.0759 124.46C86.0759 123.009 86.4824 121.846 87.2953 120.971C88.1208 120.095 89.2401 119.658 90.6534 119.658C92.0791 119.658 93.1234 120.133 93.7863 121.083C94.4617 122.021 94.7993 123.134 94.7993 124.423V125.173H88.6648C88.7774 125.773 89.0525 126.255 89.4902 126.617C89.928 126.968 90.5033 127.143 91.2162 127.143C91.6289 127.143 91.9978 127.093 92.323 126.993C92.6607 126.88 93.0484 126.724 93.4861 126.524L94.199 128.287C93.7738 128.612 93.2548 128.85 92.6419 129C92.0416 129.15 91.5476 129.225 91.1599 129.225ZM92.4918 123.541C92.3668 122.928 92.1417 122.478 91.8165 122.19C91.4913 121.89 91.0849 121.74 90.5971 121.74C90.0968 121.74 89.6778 121.896 89.3402 122.209C89.0025 122.509 88.7836 122.953 88.6836 123.541H92.4918Z" fill="#0E1420"/>
<path d="M55.9208 163.243V171.179C55.9208 172.242 56.1772 173.017 56.69 173.505C57.2028 173.98 57.8656 174.218 58.6786 174.218C59.504 174.218 60.1669 173.968 60.6671 173.467C61.1799 172.967 61.4363 172.204 61.4363 171.179V163.243H63.8938V171.366C63.8938 172.742 63.4186 173.893 62.4681 174.818C61.5301 175.744 60.2544 176.206 58.641 176.206C57.0527 176.206 55.7895 175.744 54.8515 174.818C53.926 173.893 53.4633 172.742 53.4633 171.366V163.243H55.9208ZM68.5443 167.877C68.957 167.464 69.4698 167.139 70.0826 166.901C70.7079 166.664 71.2645 166.545 71.7522 166.545C72.9904 166.545 73.8659 166.908 74.3786 167.633C74.9039 168.358 75.1665 169.246 75.1665 170.297V176H72.7277V170.41C72.7277 169.834 72.5902 169.396 72.315 169.096C72.0399 168.784 71.6397 168.627 71.1144 168.627C70.7642 168.627 70.3953 168.721 70.0075 168.909C69.6323 169.084 69.2884 169.29 68.9757 169.528V176H66.5369V166.901H67.8126L68.5443 167.877ZM78.6386 162.868C79.0263 162.868 79.3515 162.999 79.6141 163.262C79.8893 163.525 80.0269 163.85 80.0269 164.237C80.0269 164.625 79.8893 164.95 79.6141 165.213C79.3515 165.476 79.0263 165.607 78.6386 165.607C78.2634 165.607 77.9445 165.476 77.6819 165.213C77.4192 164.95 77.2879 164.625 77.2879 164.237C77.2879 163.85 77.4192 163.525 77.6819 163.262C77.9445 162.999 78.2634 162.868 78.6386 162.868ZM79.858 166.901V176H77.4192V166.901H79.858ZM87.8471 175.812C87.647 175.975 87.3594 176.106 86.9842 176.206C86.6215 176.319 86.2963 176.375 86.0087 176.375C84.8831 176.375 83.9951 176.094 83.3447 175.531C82.7069 174.956 82.388 174.143 82.388 173.092V168.796H81.1686V166.92H82.388V164.763L84.808 164.331V166.92H86.4589L87.2093 168.796H84.808V172.661C84.808 173.136 84.9206 173.53 85.1457 173.843C85.3708 174.143 85.7022 174.293 86.14 174.293C86.3026 174.293 86.4651 174.274 86.6277 174.237C86.7903 174.199 86.9592 174.137 87.1343 174.049L87.8471 175.812ZM93.0075 161.874H95.5401L93.7391 164.95H91.9006L93.0075 161.874ZM93.9079 176.225C92.3321 176.225 91.0877 175.794 90.1747 174.931C89.2742 174.068 88.824 172.911 88.824 171.46C88.824 170.009 89.2304 168.846 90.0434 167.971C90.8688 167.095 91.9882 166.658 93.4014 166.658C94.8272 166.658 95.8715 167.133 96.5343 168.083C97.2097 169.021 97.5474 170.134 97.5474 171.423V172.173H91.4129C91.5254 172.773 91.8006 173.255 92.2383 173.617C92.676 173.968 93.2513 174.143 93.9642 174.143C94.3769 174.143 94.7459 174.093 95.0711 173.993C95.4087 173.88 95.7964 173.724 96.2342 173.524L96.9471 175.287C96.5218 175.612 96.0028 175.85 95.39 176C94.7897 176.15 94.2956 176.225 93.9079 176.225ZM95.2399 170.541C95.1148 169.928 94.8897 169.478 94.5645 169.19C94.2394 168.89 93.8329 168.74 93.3451 168.74C92.8449 168.74 92.4259 168.896 92.0882 169.209C91.7505 169.509 91.5317 169.953 91.4316 170.541H95.2399ZM104.268 167.108C104.656 167.108 104.975 167.245 105.225 167.52C105.488 167.783 105.619 168.102 105.619 168.477C105.619 168.865 105.488 169.196 105.225 169.472C104.975 169.734 104.656 169.865 104.268 169.865C103.88 169.865 103.549 169.734 103.274 169.472C103.011 169.196 102.88 168.865 102.88 168.477C102.88 168.102 103.011 167.783 103.274 167.52C103.549 167.245 103.88 167.108 104.268 167.108ZM104.268 173.261C104.656 173.261 104.975 173.392 105.225 173.655C105.488 173.918 105.619 174.243 105.619 174.631C105.619 175.018 105.488 175.343 105.225 175.606C104.975 175.869 104.656 176 104.268 176C103.88 176 103.549 175.869 103.274 175.606C103.011 175.343 102.88 175.018 102.88 174.631C102.88 174.243 103.011 173.918 103.274 173.655C103.549 173.392 103.88 173.261 104.268 173.261Z" fill="#0E1420"/>
<path d="M58.2283 231H53.5758V218.243H58.3034C60.2669 218.243 61.7239 218.837 62.6744 220.025C63.6249 221.214 64.1002 222.721 64.1002 224.547C64.1002 226.523 63.5874 228.092 62.5619 229.255C61.5363 230.418 60.0918 231 58.2283 231ZM58.3221 220.307H55.9959V228.955H58.1908C59.2163 228.955 60.0355 228.617 60.6484 227.942C61.2737 227.267 61.5864 226.135 61.5864 224.547C61.5864 223.221 61.3237 222.183 60.7984 221.432C60.2732 220.682 59.4477 220.307 58.3221 220.307ZM71.0625 231.225C69.4867 231.225 68.2423 230.794 67.3293 229.931C66.4288 229.068 65.9785 227.911 65.9785 226.46C65.9785 225.009 66.385 223.846 67.1979 222.971C68.0234 222.095 69.1427 221.658 70.556 221.658C71.9817 221.658 73.0261 222.133 73.6889 223.083C74.3643 224.021 74.7019 225.134 74.7019 226.423V227.173H68.5674C68.68 227.773 68.9551 228.255 69.3929 228.617C69.8306 228.968 70.4059 229.143 71.1188 229.143C71.5315 229.143 71.9005 229.093 72.2256 228.993C72.5633 228.88 72.951 228.724 73.3887 228.524L74.1016 230.287C73.6764 230.612 73.1574 230.85 72.5445 231C71.9442 231.15 71.4502 231.225 71.0625 231.225ZM72.3945 225.541C72.2694 224.928 72.0443 224.478 71.7191 224.19C71.3939 223.89 70.9875 223.74 70.4997 223.74C69.9994 223.74 69.5805 223.896 69.2428 224.209C68.9051 224.509 68.6862 224.953 68.5862 225.541H72.3945ZM81.9231 224.359C81.4853 224.159 81.0789 224.009 80.7037 223.909C80.3285 223.796 79.9283 223.74 79.503 223.74C79.1904 223.74 78.9465 223.802 78.7714 223.927C78.6088 224.04 78.5275 224.203 78.5275 224.415C78.5275 224.565 78.6276 224.709 78.8277 224.847C79.0403 224.984 79.378 225.134 79.8407 225.297C80.6036 225.572 81.3103 225.96 81.9606 226.46C82.6109 226.948 82.9361 227.586 82.9361 228.374C82.9361 229.274 82.6109 229.974 81.9606 230.475C81.3228 230.975 80.3848 231.225 79.1466 231.225C78.7589 231.225 78.2399 231.15 77.5895 231C76.9517 230.85 76.4201 230.612 75.9949 230.287L76.7266 228.524C77.1643 228.724 77.5833 228.88 77.9835 228.993C78.3962 229.093 78.7714 229.143 79.1091 229.143C79.5593 229.143 79.9033 229.08 80.1409 228.955C80.3785 228.83 80.4973 228.668 80.4973 228.467C80.4973 228.217 80.3785 227.992 80.1409 227.792C79.9033 227.592 79.5281 227.411 79.0153 227.248C78.2899 227.01 77.602 226.673 76.9517 226.235C76.3138 225.785 75.9949 225.184 75.9949 224.434C75.9949 223.571 76.3138 222.896 76.9517 222.408C77.5895 221.908 78.4525 221.658 79.5406 221.658C79.9283 221.658 80.4285 221.739 81.0414 221.901C81.6542 222.064 82.192 222.302 82.6547 222.614L81.9231 224.359ZM85.8935 217.868C86.2812 217.868 86.6063 217.999 86.869 218.262C87.1441 218.525 87.2817 218.85 87.2817 219.237C87.2817 219.625 87.1441 219.95 86.869 220.213C86.6063 220.476 86.2812 220.607 85.8935 220.607C85.5183 220.607 85.1993 220.476 84.9367 220.213C84.6741 219.95 84.5427 219.625 84.5427 219.237C84.5427 218.85 84.6741 218.525 84.9367 218.262C85.1993 217.999 85.5183 217.868 85.8935 217.868ZM87.1129 221.901V231H84.6741V221.901H87.1129ZM93.8826 223.627C93.0321 223.627 92.4381 223.927 92.1004 224.528C91.7752 225.128 91.6126 225.747 91.6126 226.385C91.6126 227.098 91.7627 227.736 92.0629 228.299C92.363 228.861 92.9696 229.143 93.8826 229.143C94.1702 229.143 94.4704 229.08 94.7831 228.955C95.1082 228.818 95.4084 228.661 95.6835 228.486V224.284C95.4084 224.096 95.1082 223.94 94.7831 223.815C94.4704 223.69 94.1702 223.627 93.8826 223.627ZM98.1411 221.901V230.981C98.1411 232.082 97.7659 233.001 97.0155 233.739C96.2776 234.489 95.102 234.865 93.4886 234.865C93.1009 234.865 92.5381 234.771 91.8002 234.583C91.0623 234.408 90.4495 234.158 89.9617 233.833L90.6934 232.107C91.2562 232.382 91.7377 232.582 92.1379 232.707C92.5381 232.832 92.9696 232.895 93.4323 232.895C94.1577 232.895 94.7143 232.72 95.102 232.369C95.4897 232.032 95.6835 231.563 95.6835 230.962V230.493C95.2958 230.719 94.8831 230.894 94.4454 231.019C94.0076 231.156 93.6012 231.225 93.226 231.225C91.9003 231.225 90.881 230.762 90.1681 229.837C89.4552 228.911 89.0988 227.761 89.0988 226.385C89.0988 225.009 89.474 223.859 90.2244 222.933C90.9873 222.008 92.0253 221.545 93.3385 221.545C93.7888 221.545 94.2953 221.645 94.8581 221.845C95.4209 222.033 95.9024 222.302 96.3026 222.652L96.8654 221.901H98.1411ZM102.583 222.877C102.996 222.464 103.509 222.139 104.122 221.901C104.747 221.664 105.304 221.545 105.791 221.545C107.03 221.545 107.905 221.908 108.418 222.633C108.943 223.358 109.206 224.246 109.206 225.297V231H106.767V225.41C106.767 224.834 106.629 224.396 106.354 224.096C106.079 223.784 105.679 223.627 105.154 223.627C104.803 223.627 104.434 223.721 104.047 223.909C103.671 224.084 103.328 224.29 103.015 224.528V231H100.576V221.901H101.852L102.583 222.877ZM113.278 228.28C113.278 228.542 113.384 228.78 113.597 228.993C113.81 229.193 114.091 229.293 114.441 229.293C114.779 229.293 115.117 229.218 115.454 229.068C115.804 228.918 116.136 228.693 116.449 228.392V227.004H114.61C114.185 227.004 113.853 227.135 113.616 227.398C113.391 227.661 113.278 227.955 113.278 228.28ZM114.479 231.225C113.366 231.225 112.54 230.956 112.002 230.418C111.465 229.868 111.196 229.155 111.196 228.28C111.196 227.342 111.515 226.623 112.152 226.122C112.79 225.622 113.622 225.372 114.648 225.372H116.43C116.417 224.909 116.28 224.553 116.017 224.303C115.767 224.04 115.417 223.909 114.966 223.909C114.541 223.909 114.079 223.971 113.578 224.096C113.078 224.209 112.659 224.346 112.321 224.509L111.665 222.483C112.015 222.245 112.546 222.051 113.259 221.901C113.985 221.739 114.541 221.658 114.929 221.658C116.017 221.658 116.949 221.976 117.724 222.614C118.5 223.24 118.887 224.04 118.887 225.016V231H117.63L117.03 230.231C116.692 230.493 116.292 230.725 115.829 230.925C115.379 231.125 114.929 231.225 114.479 231.225ZM126.759 230.812C126.559 230.975 126.272 231.106 125.897 231.206C125.534 231.319 125.209 231.375 124.921 231.375C123.795 231.375 122.907 231.094 122.257 230.531C121.619 229.956 121.3 229.143 121.3 228.092V223.796H120.081V221.92H121.3V219.763L123.72 219.331V221.92H125.371L126.122 223.796H123.72V227.661C123.72 228.136 123.833 228.53 124.058 228.843C124.283 229.143 124.615 229.293 125.052 229.293C125.215 229.293 125.377 229.274 125.54 229.237C125.703 229.199 125.872 229.137 126.047 229.049L126.759 230.812ZM129.331 217.868C129.719 217.868 130.044 217.999 130.306 218.262C130.582 218.525 130.719 218.85 130.719 219.237C130.719 219.625 130.582 219.95 130.306 220.213C130.044 220.476 129.719 220.607 129.331 220.607C128.956 220.607 128.637 220.476 128.374 220.213C128.112 219.95 127.98 219.625 127.98 219.237C127.98 218.85 128.112 218.525 128.374 218.262C128.637 217.999 128.956 217.868 129.331 217.868ZM130.55 221.901V231H128.112V221.901H130.55ZM137.114 231.225C135.675 231.225 134.55 230.794 133.737 229.931C132.936 229.055 132.536 227.886 132.536 226.423C132.536 224.972 132.955 223.815 133.793 222.952C134.644 222.089 135.8 221.658 137.264 221.658C138.777 221.658 139.946 222.108 140.772 223.008C141.61 223.896 142.029 225.066 142.029 226.516C142.029 227.967 141.579 229.118 140.678 229.968C139.778 230.806 138.589 231.225 137.114 231.225ZM139.515 226.516C139.515 225.653 139.321 224.978 138.933 224.49C138.558 223.99 138.02 223.74 137.32 223.74C136.607 223.74 136.051 223.959 135.65 224.396C135.25 224.834 135.05 225.503 135.05 226.404C135.05 227.304 135.219 227.986 135.557 228.449C135.907 228.911 136.438 229.143 137.151 229.143C137.852 229.143 138.421 228.936 138.858 228.524C139.296 228.098 139.515 227.429 139.515 226.516ZM145.984 222.877C146.397 222.464 146.91 222.139 147.523 221.901C148.148 221.664 148.704 221.545 149.192 221.545C150.43 221.545 151.306 221.908 151.819 222.633C152.344 223.358 152.607 224.246 152.607 225.297V231H150.168V225.41C150.168 224.834 150.03 224.396 149.755 224.096C149.48 223.784 149.08 223.627 148.554 223.627C148.204 223.627 147.835 223.721 147.448 223.909C147.072 224.084 146.728 224.29 146.416 224.528V231H143.977V221.901H145.253L145.984 222.877ZM159.705 222.108C160.093 222.108 160.412 222.245 160.662 222.52C160.925 222.783 161.056 223.102 161.056 223.477C161.056 223.865 160.925 224.196 160.662 224.472C160.412 224.734 160.093 224.865 159.705 224.865C159.318 224.865 158.986 224.734 158.711 224.472C158.448 224.196 158.317 223.865 158.317 223.477C158.317 223.102 158.448 222.783 158.711 222.52C158.986 222.245 159.318 222.108 159.705 222.108ZM159.705 228.261C160.093 228.261 160.412 228.392 160.662 228.655C160.925 228.918 161.056 229.243 161.056 229.631C161.056 230.018 160.925 230.343 160.662 230.606C160.412 230.869 160.093 231 159.705 231C159.318 231 158.986 230.869 158.711 230.606C158.448 230.343 158.317 230.018 158.317 229.631C158.317 229.243 158.448 228.918 158.711 228.655C158.986 228.392 159.318 228.261 159.705 228.261Z" fill="#0E1420"/>
<path d="M63.256 284.675L61.9616 283.493C61.5363 283.731 61.0736 283.919 60.5733 284.056C60.0731 284.194 59.529 284.263 58.9412 284.263C56.9526 284.263 55.4769 283.625 54.5138 282.349C53.5508 281.061 53.0693 279.504 53.0693 277.678C53.0693 275.714 53.5821 274.101 54.6076 272.838C55.6332 271.575 57.0777 270.943 58.9412 270.943C60.9423 270.943 62.4243 271.587 63.3873 272.875C64.3503 274.164 64.8318 275.721 64.8318 277.547C64.8318 278.485 64.7068 279.354 64.4566 280.154C64.219 280.942 63.8751 281.624 63.4248 282.199L64.6818 283.418L63.256 284.675ZM55.6019 277.659C55.6019 278.997 55.8708 280.092 56.4086 280.942C56.9464 281.793 57.7843 282.218 58.9224 282.218C59.1601 282.218 59.3977 282.193 59.6353 282.143C59.8729 282.08 60.0918 282.005 60.2919 281.918L58.7348 280.473L60.3857 279.216L61.7364 280.529C61.9115 280.167 62.0491 279.741 62.1492 279.254C62.2492 278.753 62.2992 278.184 62.2992 277.547C62.2992 276.221 62.0303 275.133 61.4926 274.282C60.9548 273.432 60.1168 273.007 58.9787 273.007C57.9782 273.007 57.1653 273.426 56.5399 274.264C55.9146 275.102 55.6019 276.233 55.6019 277.659ZM73.5404 283.1C73.1277 283.487 72.6212 283.794 72.0209 284.019C71.4206 284.256 70.8765 284.375 70.3888 284.375C69.1506 284.375 68.2689 284.013 67.7436 283.287C67.2308 282.549 66.9744 281.661 66.9744 280.623V274.901H69.432V280.511C69.432 281.086 69.5696 281.53 69.8447 281.843C70.1199 282.143 70.5201 282.293 71.0454 282.293C71.3705 282.293 71.7145 282.212 72.0772 282.049C72.4399 281.886 72.7713 281.699 73.0714 281.486V274.901H75.5102V284H74.2346L73.5404 283.1ZM79.6786 281.28C79.6786 281.542 79.7849 281.78 79.9975 281.993C80.2102 282.193 80.4916 282.293 80.8417 282.293C81.1794 282.293 81.5171 282.218 81.8548 282.068C82.205 281.918 82.5364 281.693 82.8491 281.392V280.004H81.0106C80.5854 280.004 80.2539 280.135 80.0163 280.398C79.7912 280.661 79.6786 280.955 79.6786 281.28ZM80.8793 284.225C79.7662 284.225 78.9407 283.956 78.4029 283.418C77.8652 282.868 77.5963 282.155 77.5963 281.28C77.5963 280.342 77.9152 279.623 78.553 279.122C79.1909 278.622 80.0226 278.372 81.0481 278.372H82.8303C82.8178 277.909 82.6802 277.553 82.4176 277.303C82.1674 277.04 81.8173 276.909 81.367 276.909C80.9418 276.909 80.479 276.971 79.9788 277.096C79.4785 277.209 79.0595 277.346 78.7219 277.509L78.0653 275.483C78.4154 275.245 78.947 275.051 79.6599 274.901C80.3852 274.739 80.9418 274.658 81.3295 274.658C82.4176 274.658 83.3493 274.976 84.1247 275.614C84.9002 276.24 85.2879 277.04 85.2879 278.016V284H84.0309L83.4306 283.231C83.0929 283.493 82.6927 283.725 82.23 283.925C81.7797 284.125 81.3295 284.225 80.8793 284.225ZM89.5393 275.877C89.9521 275.464 90.4648 275.139 91.0777 274.901C91.703 274.664 92.2595 274.545 92.7473 274.545C93.9855 274.545 94.8609 274.908 95.3737 275.633C95.899 276.358 96.1616 277.246 96.1616 278.297V284H93.7228V278.41C93.7228 277.834 93.5853 277.396 93.3101 277.096C93.035 276.784 92.6347 276.627 92.1095 276.627C91.7593 276.627 91.3903 276.721 91.0026 276.909C90.6274 277.084 90.2835 277.29 89.9708 277.528V284H87.532V274.901H88.8077L89.5393 275.877ZM104.042 283.812C103.842 283.975 103.555 284.106 103.179 284.206C102.817 284.319 102.491 284.375 102.204 284.375C101.078 284.375 100.19 284.094 99.5399 283.531C98.9021 282.956 98.5831 282.143 98.5831 281.092V276.796H97.3637V274.92H98.5831V272.763L101.003 272.331V274.92H102.654L103.404 276.796H101.003V280.661C101.003 281.136 101.116 281.53 101.341 281.843C101.566 282.143 101.897 282.293 102.335 282.293C102.498 282.293 102.66 282.274 102.823 282.237C102.985 282.199 103.154 282.137 103.329 282.049L104.042 283.812ZM106.614 270.868C107.001 270.868 107.327 270.999 107.589 271.262C107.864 271.525 108.002 271.85 108.002 272.237C108.002 272.625 107.864 272.95 107.589 273.213C107.327 273.476 107.001 273.607 106.614 273.607C106.239 273.607 105.92 273.476 105.657 273.213C105.394 272.95 105.263 272.625 105.263 272.237C105.263 271.85 105.394 271.525 105.657 271.262C105.92 270.999 106.239 270.868 106.614 270.868ZM107.833 274.901V284H105.394V274.901H107.833ZM115.822 283.812C115.622 283.975 115.334 284.106 114.959 284.206C114.597 284.319 114.271 284.375 113.984 284.375C112.858 284.375 111.97 284.094 111.32 283.531C110.682 282.956 110.363 282.143 110.363 281.092V276.796H109.144V274.92H110.363V272.763L112.783 272.331V274.92H114.434L115.184 276.796H112.783V280.661C112.783 281.136 112.896 281.53 113.121 281.843C113.346 282.143 113.677 282.293 114.115 282.293C114.278 282.293 114.44 282.274 114.603 282.237C114.765 282.199 114.934 282.137 115.109 282.049L115.822 283.812ZM120.983 269.874H123.515L121.714 272.95H119.876L120.983 269.874ZM121.883 284.225C120.307 284.225 119.063 283.794 118.15 282.931C117.249 282.068 116.799 280.911 116.799 279.46C116.799 278.009 117.206 276.846 118.018 275.971C118.844 275.095 119.963 274.658 121.377 274.658C122.802 274.658 123.847 275.133 124.509 276.083C125.185 277.021 125.522 278.134 125.522 279.423V280.173H119.388C119.501 280.773 119.776 281.255 120.213 281.617C120.651 281.968 121.226 282.143 121.939 282.143C122.352 282.143 122.721 282.093 123.046 281.993C123.384 281.88 123.772 281.724 124.209 281.524L124.922 283.287C124.497 283.612 123.978 283.85 123.365 284C122.765 284.15 122.271 284.225 121.883 284.225ZM123.215 278.541C123.09 277.928 122.865 277.478 122.54 277.19C122.214 276.89 121.808 276.74 121.32 276.74C120.82 276.74 120.401 276.896 120.063 277.209C119.726 277.509 119.507 277.953 119.407 278.541H123.215ZM132.243 275.108C132.631 275.108 132.95 275.245 133.2 275.52C133.463 275.783 133.594 276.102 133.594 276.477C133.594 276.865 133.463 277.196 133.2 277.472C132.95 277.734 132.631 277.865 132.243 277.865C131.856 277.865 131.524 277.734 131.249 277.472C130.986 277.196 130.855 276.865 130.855 276.477C130.855 276.102 130.986 275.783 131.249 275.52C131.524 275.245 131.856 275.108 132.243 275.108ZM132.243 281.261C132.631 281.261 132.95 281.392 133.2 281.655C133.463 281.918 133.594 282.243 133.594 282.631C133.594 283.018 133.463 283.343 133.2 283.606C132.95 283.869 132.631 284 132.243 284C131.856 284 131.524 283.869 131.249 283.606C130.986 283.343 130.855 283.018 130.855 282.631C130.855 282.243 130.986 281.918 131.249 281.655C131.524 281.392 131.856 281.261 132.243 281.261Z" fill="#0E1420"/>
<path d="M53.5758 335V322.243H57.5717C58.96 322.243 60.1481 322.562 61.1361 323.2C62.1241 323.825 62.6182 324.87 62.6182 326.333C62.6182 327.784 62.0866 328.853 61.0236 329.541C59.9605 330.216 58.7536 330.554 57.4029 330.554H55.9959V335H53.5758ZM57.4967 324.269H55.9959V328.547H57.5342C58.2596 328.547 58.8474 328.384 59.2976 328.059C59.7479 327.721 59.998 327.196 60.048 326.483C60.048 325.658 59.8229 325.082 59.3727 324.757C58.9224 324.432 58.2971 324.269 57.4967 324.269ZM69.5485 325.901L70.0363 327.852C69.6236 327.852 69.142 327.971 68.5918 328.209C68.054 328.447 67.5224 328.797 66.9972 329.259V335H64.5584V325.901H65.834L66.6407 327.233C67.0159 326.908 67.4724 326.608 68.0102 326.333C68.548 326.045 69.0608 325.901 69.5485 325.901ZM72.5013 321.868C72.889 321.868 73.2142 321.999 73.4768 322.262C73.752 322.525 73.8895 322.85 73.8895 323.237C73.8895 323.625 73.752 323.95 73.4768 324.213C73.2142 324.476 72.889 324.607 72.5013 324.607C72.1261 324.607 71.8072 324.476 71.5445 324.213C71.2819 323.95 71.1506 323.625 71.1506 323.237C71.1506 322.85 71.2819 322.525 71.5445 322.262C71.8072 321.999 72.1261 321.868 72.5013 321.868ZM73.7207 325.901V335H71.2819V325.901H73.7207ZM75.0313 335L78.4644 330.385L75.3314 326.258L77.8265 325.901L80.0214 328.828L82.3102 325.901H84.9741L81.466 330.741L84.6739 335H81.9912L79.8901 332.28L77.7327 335H75.0313ZM95.0917 327.627C94.2413 327.627 93.6472 327.927 93.3095 328.528C92.9843 329.128 92.8218 329.747 92.8218 330.385C92.8218 331.098 92.9718 331.736 93.272 332.299C93.5722 332.861 94.1787 333.143 95.0917 333.143C95.3794 333.143 95.6795 333.08 95.9922 332.955C96.3174 332.818 96.6175 332.661 96.8927 332.486V328.284C96.6175 328.096 96.3174 327.94 95.9922 327.815C95.6795 327.69 95.3794 327.627 95.0917 327.627ZM99.3502 321.755V335H98.0746L97.3992 334.118C96.9865 334.468 96.4987 334.744 95.9359 334.944C95.3856 335.131 94.8854 335.225 94.4351 335.225C93.1094 335.225 92.0901 334.762 91.3772 333.837C90.6644 332.911 90.3079 331.761 90.3079 330.385C90.3079 329.009 90.6831 327.859 91.4335 326.933C92.1964 326.008 93.2345 325.545 94.5477 325.545C94.8854 325.545 95.2668 325.607 95.692 325.733C96.1173 325.845 96.5175 326.008 96.8927 326.22V321.962L99.3502 321.755ZM102.311 321.08C102.698 321.08 103.03 321.236 103.305 321.549C103.592 321.849 103.736 322.249 103.736 322.75C103.736 323.45 103.499 324.182 103.023 324.945C102.561 325.708 101.973 326.289 101.26 326.689L100.735 325.545C101.047 325.27 101.31 325.013 101.523 324.776C101.748 324.526 101.904 324.2 101.992 323.8C101.779 323.8 101.548 323.663 101.297 323.388C101.06 323.112 100.941 322.806 100.941 322.468C100.941 322.143 101.072 321.83 101.335 321.53C101.598 321.23 101.923 321.08 102.311 321.08ZM106.903 332.28C106.903 332.542 107.009 332.78 107.222 332.993C107.434 333.193 107.716 333.293 108.066 333.293C108.403 333.293 108.741 333.218 109.079 333.068C109.429 332.918 109.76 332.693 110.073 332.392V331.004H108.235C107.809 331.004 107.478 331.135 107.24 331.398C107.015 331.661 106.903 331.955 106.903 332.28ZM108.103 335.225C106.99 335.225 106.165 334.956 105.627 334.418C105.089 333.868 104.82 333.155 104.82 332.28C104.82 331.342 105.139 330.623 105.777 330.122C106.415 329.622 107.247 329.372 108.272 329.372H110.054C110.042 328.909 109.904 328.553 109.642 328.303C109.391 328.04 109.041 327.909 108.591 327.909C108.166 327.909 107.703 327.971 107.203 328.096C106.702 328.209 106.284 328.346 105.946 328.509L105.289 326.483C105.639 326.245 106.171 326.051 106.884 325.901C107.609 325.739 108.166 325.658 108.553 325.658C109.642 325.658 110.573 325.976 111.349 326.614C112.124 327.24 112.512 328.04 112.512 329.016V335H111.255L110.655 334.231C110.317 334.493 109.917 334.725 109.454 334.925C109.004 335.125 108.553 335.225 108.103 335.225ZM119.09 327.74C118.402 327.74 117.864 328.003 117.476 328.528C117.089 329.041 116.895 329.685 116.895 330.46C116.895 331.248 117.089 331.892 117.476 332.392C117.864 332.893 118.402 333.143 119.09 333.143C119.515 333.143 119.896 333.093 120.234 332.993C120.584 332.88 120.978 332.724 121.416 332.524L122.11 334.287C121.685 334.612 121.166 334.85 120.553 335C119.953 335.15 119.459 335.225 119.071 335.225C117.595 335.225 116.444 334.794 115.619 333.931C114.794 333.068 114.381 331.911 114.381 330.46C114.381 329.009 114.794 327.846 115.619 326.971C116.444 326.095 117.595 325.658 119.071 325.658C119.459 325.658 119.946 325.739 120.534 325.901C121.134 326.064 121.66 326.302 122.11 326.614L121.416 328.359C120.978 328.159 120.584 328.009 120.234 327.909C119.896 327.796 119.515 327.74 119.09 327.74ZM126.431 326.502C126.831 326.189 127.288 325.951 127.8 325.789C128.326 325.626 128.795 325.545 129.207 325.545C130.446 325.545 131.321 325.908 131.834 326.633C132.359 327.358 132.622 328.246 132.622 329.297V335H130.183V329.41C130.183 328.834 130.045 328.396 129.77 328.096C129.495 327.784 129.089 327.627 128.551 327.627C128.201 327.627 127.838 327.721 127.463 327.909C127.087 328.084 126.744 328.29 126.431 328.528V335H124.011V321.962L126.431 321.755V326.502ZM136.673 332.28C136.673 332.542 136.779 332.78 136.992 332.993C137.205 333.193 137.486 333.293 137.836 333.293C138.174 333.293 138.512 333.218 138.849 333.068C139.199 332.918 139.531 332.693 139.844 332.392V331.004H138.005C137.58 331.004 137.248 331.135 137.011 331.398C136.786 331.661 136.673 331.955 136.673 332.28ZM137.874 335.225C136.761 335.225 135.935 334.956 135.397 334.418C134.86 333.868 134.591 333.155 134.591 332.28C134.591 331.342 134.91 330.623 135.548 330.122C136.185 329.622 137.017 329.372 138.043 329.372H139.825C139.812 328.909 139.675 328.553 139.412 328.303C139.162 328.04 138.812 327.909 138.362 327.909C137.936 327.909 137.474 327.971 136.973 328.096C136.473 328.209 136.054 328.346 135.716 328.509L135.06 326.483C135.41 326.245 135.941 326.051 136.654 325.901C137.38 325.739 137.936 325.658 138.324 325.658C139.412 325.658 140.344 325.976 141.119 326.614C141.895 327.24 142.282 328.04 142.282 329.016V335H141.025L140.425 334.231C140.087 334.493 139.687 334.725 139.224 334.925C138.774 335.125 138.324 335.225 137.874 335.225ZM150.155 334.812C149.954 334.975 149.667 335.106 149.292 335.206C148.929 335.319 148.604 335.375 148.316 335.375C147.19 335.375 146.302 335.094 145.652 334.531C145.014 333.956 144.695 333.143 144.695 332.092V327.796H143.476V325.92H144.695V323.763L147.115 323.331V325.92H148.766L149.517 327.796H147.115V331.661C147.115 332.136 147.228 332.53 147.453 332.843C147.678 333.143 148.01 333.293 148.447 333.293C148.61 333.293 148.773 333.274 148.935 333.237C149.098 333.199 149.267 333.137 149.442 333.049L150.155 334.812ZM156.353 326.108C156.741 326.108 157.059 326.245 157.31 326.52C157.572 326.783 157.704 327.102 157.704 327.477C157.704 327.865 157.572 328.196 157.31 328.472C157.059 328.734 156.741 328.865 156.353 328.865C155.965 328.865 155.634 328.734 155.359 328.472C155.096 328.196 154.965 327.865 154.965 327.477C154.965 327.102 155.096 326.783 155.359 326.52C155.634 326.245 155.965 326.108 156.353 326.108ZM156.353 332.261C156.741 332.261 157.059 332.392 157.31 332.655C157.572 332.918 157.704 333.243 157.704 333.631C157.704 334.018 157.572 334.343 157.31 334.606C157.059 334.869 156.741 335 156.353 335C155.965 335 155.634 334.869 155.359 334.606C155.096 334.343 154.965 334.018 154.965 333.631C154.965 333.243 155.096 332.918 155.359 332.655C155.634 332.392 155.965 332.261 156.353 332.261Z" fill="#0E1420"/>
<rect x="214.5" y="104.5" width="396" height="33" fill="#FFFEFF" stroke="#007ACE"/>
<rect x="214.5" y="206.5" width="396" height="33" fill="#FFFEFF" stroke="#007ACE"/>
<rect x="214.5" y="258.5" width="396" height="33" fill="#FFFEFF" stroke="#007ACE"/>
<rect x="214.5" y="307.5" width="396" height="33" fill="#FFFEFF" stroke="#007ACE"/>
<rect x="214.5" y="152.5" width="396" height="33" fill="#FFFEFF" stroke="#007ACE"/>
<rect x="324.5" y="366.5" width="136" height="34" fill="#79D044" stroke="#007ACE"/>
<path d="M362.62 391.177C361.794 391.177 361.002 391.069 360.244 390.852C359.486 390.626 358.876 390.336 358.413 389.981L359.225 388.18C359.668 388.495 360.19 388.756 360.79 388.963C361.4 389.16 362.015 389.258 362.635 389.258C363.108 389.258 363.487 389.214 363.772 389.125C364.067 389.027 364.284 388.894 364.421 388.727C364.559 388.559 364.628 388.367 364.628 388.151C364.628 387.875 364.52 387.659 364.303 387.501C364.087 387.334 363.801 387.201 363.447 387.103C363.093 386.995 362.699 386.896 362.266 386.808C361.843 386.709 361.415 386.591 360.982 386.453C360.559 386.316 360.17 386.138 359.816 385.922C359.461 385.705 359.171 385.42 358.945 385.066C358.728 384.711 358.62 384.259 358.62 383.708C358.62 383.117 358.777 382.581 359.092 382.099C359.417 381.607 359.899 381.218 360.539 380.932C361.189 380.637 362 380.49 362.975 380.49C363.624 380.49 364.264 380.568 364.894 380.726C365.524 380.873 366.08 381.1 366.562 381.405L365.824 383.22C365.342 382.945 364.859 382.743 364.377 382.615C363.895 382.477 363.423 382.409 362.96 382.409C362.497 382.409 362.119 382.463 361.823 382.571C361.528 382.679 361.317 382.822 361.189 382.999C361.061 383.166 360.997 383.363 360.997 383.59C360.997 383.855 361.105 384.072 361.321 384.239C361.538 384.397 361.823 384.524 362.178 384.623C362.532 384.721 362.921 384.82 363.344 384.918C363.777 385.017 364.205 385.13 364.628 385.258C365.061 385.386 365.455 385.558 365.809 385.774C366.163 385.991 366.449 386.276 366.665 386.63C366.892 386.985 367.005 387.433 367.005 387.974C367.005 388.554 366.842 389.086 366.518 389.568C366.193 390.05 365.706 390.439 365.056 390.734C364.417 391.03 363.605 391.177 362.62 391.177ZM367.281 391L371.886 380.667H374.248L378.869 391H376.359L372.58 381.877H373.525L369.731 391H367.281ZM369.584 388.786L370.218 386.97H375.533L376.182 388.786H369.584ZM384.316 391.177C382.849 391.177 381.703 390.769 380.876 389.952C380.049 389.135 379.636 387.969 379.636 386.453V380.667H382.028V386.365C382.028 387.349 382.229 388.057 382.633 388.49C383.036 388.923 383.602 389.14 384.33 389.14C385.059 389.14 385.625 388.923 386.028 388.49C386.432 388.057 386.633 387.349 386.633 386.365V380.667H388.995V386.453C388.995 387.969 388.582 389.135 387.755 389.952C386.928 390.769 385.782 391.177 384.316 391.177ZM394.458 391L390 380.667H392.584L396.481 389.819H394.96L398.916 380.667H401.293L396.82 391H394.458ZM404.355 384.83H409.33V386.69H404.355V384.83ZM404.533 389.081H410.157V391H402.156V380.667H409.965V382.586H404.533V389.081ZM412.06 391V380.667H416.532C417.458 380.667 418.255 380.819 418.924 381.124C419.593 381.42 420.11 381.848 420.474 382.409C420.838 382.97 421.02 383.639 421.02 384.416C421.02 385.184 420.838 385.848 420.474 386.409C420.11 386.96 419.593 387.383 418.924 387.679C418.255 387.974 417.458 388.121 416.532 388.121H413.388L414.451 387.073V391H412.06ZM418.629 391L416.045 387.25H418.599L421.212 391H418.629ZM414.451 387.339L413.388 386.217H416.4C417.138 386.217 417.689 386.06 418.053 385.745C418.417 385.42 418.599 384.977 418.599 384.416C418.599 383.845 418.417 383.403 418.053 383.088C417.689 382.773 417.138 382.615 416.4 382.615H413.388L414.451 381.479V387.339Z" fill="white"/>
<rect x="472.5" y="367.5" width="136" height="34" fill="#0072C1" stroke="#007ACE"/>
<path d="M500.867 392L505.473 381.667H507.835L512.455 392H509.946L506.167 382.877H507.111L503.318 392H500.867ZM503.17 389.786L503.805 387.97H509.119L509.769 389.786H503.17ZM513.527 392V381.667H515.505L521.602 389.107H520.643V381.667H523.004V392H521.041L514.93 384.56H515.889V392H513.527ZM525.449 392V381.667H527.427L533.524 389.107H532.565V381.667H534.926V392H532.963L526.852 384.56H527.811V392H525.449ZM541.962 392.177C540.496 392.177 539.349 391.769 538.523 390.952C537.696 390.135 537.283 388.969 537.283 387.453V381.667H539.674V387.365C539.674 388.349 539.876 389.057 540.279 389.49C540.683 389.923 541.249 390.14 541.977 390.14C542.705 390.14 543.271 389.923 543.675 389.49C544.078 389.057 544.28 388.349 544.28 387.365V381.667H546.642V387.453C546.642 388.969 546.228 390.135 545.402 390.952C544.575 391.769 543.429 392.177 541.962 392.177ZM549.005 392V381.667H551.396V390.051H556.578V392H549.005ZM560.113 385.83H565.088V387.69H560.113V385.83ZM560.291 390.081H565.915V392H557.914V381.667H565.723V383.586H560.291V390.081ZM567.818 392V381.667H572.291C573.216 381.667 574.013 381.819 574.682 382.124C575.351 382.42 575.868 382.848 576.232 383.409C576.596 383.97 576.778 384.639 576.778 385.416C576.778 386.184 576.596 386.848 576.232 387.409C575.868 387.96 575.351 388.383 574.682 388.679C574.013 388.974 573.216 389.121 572.291 389.121H569.146L570.209 388.073V392H567.818ZM574.387 392L571.803 388.25H574.357L576.97 392H574.387ZM570.209 388.339L569.146 387.217H572.158C572.896 387.217 573.447 387.06 573.811 386.745C574.175 386.42 574.357 385.977 574.357 385.416C574.357 384.845 574.175 384.403 573.811 384.088C573.447 383.773 572.896 383.615 572.158 383.615H569.146L570.209 382.479V388.339Z" fill="white"/>
<mask id="path-21-outside-1_2816_4418" maskUnits="userSpaceOnUse" x="609" y="19" width="20" height="18" fill="black">
<rect fill="white" x="609" y="19" width="20" height="18"/>
<path d="M611.065 36L617.615 26.9696V29.5373L611.348 20.768H615.352L619.682 26.8826L618.007 26.9043L622.272 20.768H626.101L619.878 29.385V26.8608L626.471 36H622.402L617.92 29.5373H619.53L615.113 36H611.065Z"/>
</mask>
<path d="M611.065 36L617.615 26.9696V29.5373L611.348 20.768H615.352L619.682 26.8826L618.007 26.9043L622.272 20.768H626.101L619.878 29.385V26.8608L626.471 36H622.402L617.92 29.5373H619.53L615.113 36H611.065Z" fill="black"/>
<path d="M611.065 36L610.256 35.4129L609.105 37H611.065V36ZM617.615 26.9696H618.615V23.8877L616.806 26.3825L617.615 26.9696ZM617.615 29.5373L616.801 30.1187L618.615 32.6565V29.5373H617.615ZM611.348 20.768V19.768H609.404L610.535 21.3494L611.348 20.768ZM615.352 20.768L616.168 20.1901L615.869 19.768H615.352V20.768ZM619.682 26.8826L619.695 27.8825L621.598 27.8578L620.498 26.3046L619.682 26.8826ZM618.007 26.9043L617.186 26.3336L616.076 27.9295L618.02 27.9042L618.007 26.9043ZM622.272 20.768V19.768H621.749L621.451 20.1973L622.272 20.768ZM626.101 20.768L626.912 21.3535L628.057 19.768H626.101V20.768ZM619.878 29.385H618.878V32.4775L620.689 29.9705L619.878 29.385ZM619.878 26.8608L620.689 26.2757L618.878 23.7655V26.8608H619.878ZM626.471 36V37H628.426L627.282 35.4149L626.471 36ZM622.402 36L621.581 36.5699L621.879 37H622.402V36ZM617.92 29.5373V28.5373H616.009L617.098 30.1072L617.92 29.5373ZM619.53 29.5373L620.356 30.1016L621.425 28.5373H619.53V29.5373ZM615.113 36V37H615.64L615.938 36.5643L615.113 36ZM611.065 36L611.875 36.5871L618.425 27.5567L617.615 26.9696L616.806 26.3825L610.256 35.4129L611.065 36ZM617.615 26.9696H616.615V29.5373H617.615H618.615V26.9696H617.615ZM617.615 29.5373L618.429 28.9559L612.162 20.1866L611.348 20.768L610.535 21.3494L616.801 30.1187L617.615 29.5373ZM611.348 20.768V21.768H615.352V20.768V19.768H611.348V20.768ZM615.352 20.768L614.536 21.3459L618.866 27.4605L619.682 26.8826L620.498 26.3046L616.168 20.1901L615.352 20.768ZM619.682 26.8826L619.669 25.8826L617.994 25.9044L618.007 26.9043L618.02 27.9042L619.695 27.8825L619.682 26.8826ZM618.007 26.9043L618.828 27.475L623.093 21.3387L622.272 20.768L621.451 20.1973L617.186 26.3336L618.007 26.9043ZM622.272 20.768V21.768H626.101V20.768V19.768H622.272V20.768ZM626.101 20.768L625.291 20.1825L619.067 28.7995L619.878 29.385L620.689 29.9705L626.912 21.3535L626.101 20.768ZM619.878 29.385H620.878V26.8608H619.878H618.878V29.385H619.878ZM619.878 26.8608L619.067 27.4459L625.66 36.5851L626.471 36L627.282 35.4149L620.689 26.2757L619.878 26.8608ZM626.471 36V35H622.402V36V37H626.471V36ZM622.402 36L623.224 35.4301L618.741 28.9674L617.92 29.5373L617.098 30.1072L621.581 36.5699L622.402 36ZM617.92 29.5373V30.5373H619.53V29.5373V28.5373H617.92V29.5373ZM619.53 29.5373L618.704 28.973L614.287 35.4357L615.113 36L615.938 36.5643L620.356 30.1016L619.53 29.5373ZM615.113 36V35H611.065V36V37H615.113V36Z" fill="black" mask="url(#path-21-outside-1_2816_4418)"/>
</svg>
