<svg width="36" height="36" viewBox="0 0 36 36" fill="none" xmlns="http://www.w3.org/2000/svg">
<path d="M15 22.5H9C7.4087 22.5 5.88258 23.1321 4.75736 24.2574C3.63214 25.3826 3 26.9087 3 28.5V31.5" stroke="#0E1420" stroke-width="2" stroke-linecap="round" stroke-linejoin="round"/>
<path d="M21.4609 24.7957L22.8454 24.2227" stroke="#0E1420" stroke-width="2" stroke-linecap="round" stroke-linejoin="round"/>
<path d="M22.8454 20.7776L21.4609 20.2031" stroke="#0E1420" stroke-width="2" stroke-linecap="round" stroke-linejoin="round"/>
<path d="M25.2776 18.3415L24.7031 16.957" stroke="#0E1420" stroke-width="2" stroke-linecap="round" stroke-linejoin="round"/>
<path d="M25.2776 26.6582L24.7031 28.0442" stroke="#0E1420" stroke-width="2" stroke-linecap="round" stroke-linejoin="round"/>
<path d="M28.7188 18.3415L29.2932 16.957" stroke="#0E1420" stroke-width="2" stroke-linecap="round" stroke-linejoin="round"/>
<path d="M29.2917 28.0442L28.7188 26.6582" stroke="#0E1420" stroke-width="2" stroke-linecap="round" stroke-linejoin="round"/>
<path d="M31.1562 20.7776L32.5422 20.2031" stroke="#0E1420" stroke-width="2" stroke-linecap="round" stroke-linejoin="round"/>
<path d="M31.1562 24.2227L32.5422 24.7972" stroke="#0E1420" stroke-width="2" stroke-linecap="round" stroke-linejoin="round"/>
<path d="M27 27C29.4853 27 31.5 24.9853 31.5 22.5C31.5 20.0147 29.4853 18 27 18C24.5147 18 22.5 20.0147 22.5 22.5C22.5 24.9853 24.5147 27 27 27Z" stroke="#0E1420" stroke-width="2" stroke-linecap="round" stroke-linejoin="round"/>
<path d="M13.5 16.5C16.8137 16.5 19.5 13.8137 19.5 10.5C19.5 7.18629 16.8137 4.5 13.5 4.5C10.1863 4.5 7.5 7.18629 7.5 10.5C7.5 13.8137 10.1863 16.5 13.5 16.5Z" stroke="#0E1420" stroke-width="2" stroke-linecap="round" stroke-linejoin="round"/>
</svg>
