<svg width="253" height="76" viewBox="0 0 253 76" fill="none" xmlns="http://www.w3.org/2000/svg">
<g clip-path="url(#clip0_4111_7443)">
<path d="M120.496 41.188C120.496 41.8566 120.391 42.5469 120.514 43.1938C120.901 45.1996 119.788 46.1747 118.211 47.0104C111.436 50.6104 103.408 47.3788 101.773 40.3491C100.759 35.997 102.555 31.3199 106.144 28.9519C109.862 26.4972 115.5 26.6056 118.972 29.1098C119.945 29.8124 120.14 30.3912 119.2 31.2146C119.009 31.3818 118.851 31.5985 118.721 31.8182C118.214 32.6911 117.779 32.7902 116.864 32.1154C114.391 30.2953 111.661 29.9331 108.904 31.4901C106.134 33.0502 105.056 35.5822 105.371 38.6529C105.674 41.6182 107.269 43.7076 110.131 44.7229C111.479 45.2027 112.854 45.181 114.239 44.8746C116.854 44.2958 117.497 43.3052 117.071 40.6401C116.981 40.0705 116.731 39.9901 116.261 39.9994C115.231 40.0179 114.193 39.9158 113.176 40.0334C111.964 40.1727 111.933 39.4917 112.048 38.656C112.153 37.8852 111.507 36.7151 113.204 36.808C115.256 36.9194 117.321 36.8792 119.377 36.808C120.282 36.777 120.53 37.0897 120.48 37.9378C120.421 39.0181 120.465 40.1015 120.465 41.1849H120.489L120.496 41.188Z" fill="#081225"/>
<path d="M91.6853 48.3816C88.8013 48.3383 86.2141 47.518 83.8988 45.7939C83.1539 45.2398 83.0086 44.7569 83.6825 44.0883C83.7535 44.0171 83.7999 43.9212 83.8586 43.8345C84.99 42.1723 84.9838 42.1816 86.6406 43.3392C88.5293 44.661 90.6189 45.2522 92.9155 44.89C94.0933 44.7043 95.1288 44.209 95.3297 42.8687C95.5368 41.482 94.6156 40.7453 93.5059 40.346C91.8182 39.7362 90.0625 39.3245 88.3624 38.7426C85.1507 37.6437 83.8246 35.8267 84.0719 32.9975C84.3254 30.1002 86.2264 28.0913 89.3082 27.562C92.3097 27.0451 95.1257 27.6115 97.7747 29.1159C98.5661 29.5647 98.8319 30.0259 98.1426 30.7596C98.0746 30.8338 98.0128 30.9267 97.9788 31.0196C97.4656 32.5208 96.7547 32.8551 95.274 31.9049C93.6605 30.871 91.7842 30.4005 89.809 30.8896C88.7147 31.162 87.9142 31.747 87.8276 32.948C87.7441 34.0933 88.452 34.7588 89.4102 35.1736C91.5833 36.1115 94.0005 36.3344 96.1241 37.4178C99.6139 39.1976 100.254 43.8128 97.3791 46.4996C96.2045 47.5985 94.7609 48.0969 93.1999 48.2919C92.6899 48.3538 92.1737 48.3507 91.6791 48.3755L91.6853 48.3816Z" fill="#081326"/>
<path d="M141.498 27.5128C143.724 27.4323 145.758 28.0576 147.674 29.1564C148.484 29.6238 148.799 30.1408 148.101 30.9641C147.838 31.2737 147.622 31.6451 147.47 32.0228C147.183 32.7471 146.846 32.7842 146.209 32.354C144.914 31.478 143.446 31.0075 141.891 30.8094C141.053 30.701 140.246 30.8032 139.474 31.1313C138.664 31.478 138.117 32.0723 138.018 32.9731C137.919 33.8955 138.386 34.5517 139.121 35.0346C140.086 35.6661 141.198 35.9137 142.286 36.2108C143.625 36.5761 144.973 36.9259 146.218 37.5573C148.138 38.5324 149.143 40.0956 149.149 42.2623C149.155 44.5034 148.252 46.274 146.28 47.379C142.858 49.292 136.583 48.4067 133.789 45.6951C133.39 45.3082 133.23 44.9832 133.631 44.5251C133.767 44.3703 133.91 44.2093 133.996 44.0267C134.661 42.6028 135.353 42.284 136.775 43.4138C138.596 44.8594 140.824 45.367 143.189 44.9306C144.358 44.7139 145.223 44.1258 145.402 42.8907C145.578 41.668 144.787 40.9994 143.798 40.5289C142.49 39.9067 141.065 39.6405 139.687 39.235C135.322 37.9535 133.854 36.1396 134.321 32.614C134.738 29.4474 137.474 27.5035 141.504 27.5128H141.498Z" fill="#72C840"/>
<path d="M53.7122 57.2434C53.7122 60.54 53.7215 63.8335 53.7091 67.1301C53.7029 68.7397 53.1589 70.0738 51.5577 70.7176C49.261 71.6462 46.9582 70.2193 46.9087 67.6222C46.7974 61.7565 46.8685 55.8845 46.8438 50.0156C46.8438 49.3934 47.1282 49.0994 47.6444 48.861C49.3661 48.0593 51.094 47.2638 52.7818 46.3971C53.6442 45.9545 53.706 46.3414 53.7029 47.0533C53.6875 50.4521 53.6967 53.8508 53.6967 57.2465H53.7122V57.2434Z" fill="#0865CB"/>
<path d="M199.793 38.7023C201.283 37.3125 202.826 36.0867 204.102 34.6257C205.255 33.3009 206.486 32.6106 208.238 32.8892C208.736 32.9666 209.255 32.9016 210.096 32.9016C208.427 34.6536 207.008 36.3065 205.41 37.7613C204.405 38.6776 204.473 39.3121 205.231 40.3119C206.662 42.197 207.975 44.1719 209.311 46.1313C209.672 46.6637 210.173 47.1404 210.285 48.0257C209.113 48.0257 207.997 47.9947 206.884 48.038C206.22 48.0628 206.025 47.5799 205.747 47.1589C204.668 45.5246 203.574 43.9026 202.52 42.2527C202.099 41.5965 201.895 41.5222 201.172 42.0825C199.605 43.2928 199.571 44.8807 199.753 46.5244C199.973 48.4962 198.616 47.9297 197.592 48.0659C196.381 48.2269 196.152 47.7223 196.161 46.6049C196.205 40.5719 196.236 34.539 196.118 28.5092C196.081 26.6117 197.259 27.1782 198.229 27.0451C199.512 26.8686 199.83 27.4413 199.747 28.6206C199.506 32.0101 199.605 35.4026 199.793 38.7116V38.7023Z" fill="#76C743"/>
<path d="M169.977 32.7598C174.435 32.7753 177.859 36.1493 177.856 40.5231C177.85 45.0176 174.351 48.3513 169.674 48.3204C165.254 48.2894 162.011 44.9866 162.039 40.5447C162.07 35.9202 165.307 32.7443 169.977 32.7598Z" fill="#74C843"/>
<path d="M62.5502 39.7031C62.5502 45.3646 62.6028 50.6082 62.5224 55.8487C62.4915 57.8452 60.8377 59.2474 58.9769 59.1639C57.0728 59.0772 55.8333 57.7802 55.7498 55.7589C55.6076 52.4159 55.5612 49.0729 55.7034 45.7268C55.7251 45.2191 55.6323 44.6929 56.1856 44.3586C58.334 43.0585 60.3401 41.5542 62.5502 39.7062V39.7031Z" fill="#107DD1"/>
<path d="M217.251 32.7406C218.561 32.6818 219.81 32.9449 221.025 33.4092C222.836 34.0995 222.787 34.0747 221.965 35.8824C221.597 36.6872 221.294 36.8327 220.503 36.39C219.322 35.7338 218.014 35.4057 216.639 35.5388C215.86 35.6131 215.192 35.9319 215.075 36.7708C214.963 37.5818 215.579 37.9501 216.243 38.1854C217.6 38.6652 218.982 39.0799 220.317 39.6093C222.144 40.3367 223.01 41.7544 222.997 43.7137C222.982 45.6669 221.974 47.2023 220.11 47.8616C217.068 48.9357 214.191 48.2856 211.548 46.6668C210.181 45.831 211.739 45.1469 211.946 44.3978C212.15 43.6487 212.54 43.6549 213.18 44.079C214.568 45.0045 216.082 45.6453 217.813 45.4967C218.682 45.4224 219.47 45.1841 219.662 44.1873C219.86 43.1597 219.198 42.6737 218.364 42.3765C217.106 41.9277 215.813 41.5748 214.577 41.0765C212.45 40.219 211.43 38.5971 211.702 36.6779C212.011 34.4895 213.575 33.0315 215.869 32.8087C216.33 32.7653 216.793 32.7622 217.257 32.7406H217.251Z" fill="#77CA43"/>
<path d="M187.893 32.7538C189.47 32.6702 191.087 33.1252 192.44 34.2582C192.848 34.5987 193.921 35.032 193.04 35.7594C192.357 36.3228 192.082 38.1243 190.478 36.8397C189.05 35.6975 187.368 35.4406 185.705 36.329C183.986 37.2483 183.353 38.8177 183.39 40.7152C183.424 42.4981 184.082 43.9684 185.689 44.798C187.322 45.6399 188.972 45.4542 190.521 44.4606C191.482 43.8446 193.158 44.4699 193.43 45.5564C193.578 46.1476 193.046 46.3395 192.728 46.6181C190.249 48.7725 186.064 49.0139 183.204 47.1876C180.28 45.3211 179.003 41.7057 180.048 38.2481C181.09 34.803 183.962 32.7414 187.897 32.7507L187.893 32.7538Z" fill="#74C843"/>
<path d="M152.922 40.5049C152.922 39.5794 152.919 38.6508 152.925 37.7253C152.935 36.7564 153.145 35.8278 151.537 35.8587C150.527 35.8773 151.074 34.732 150.975 34.1129C150.897 33.6331 150.833 32.9584 151.646 33.0512C152.848 33.1905 153.033 32.5436 152.919 31.584C152.901 31.4323 152.919 31.2745 152.919 31.1197C152.931 28.6929 153.479 28.2719 155.902 28.7455C156.335 28.8291 156.548 28.987 156.542 29.4234C156.539 29.6803 156.545 29.9372 156.548 30.1973C156.57 32.9491 156.57 33.0203 159.358 33.0048C160.44 32.9986 160.412 33.5527 160.325 34.2367C160.239 34.9239 160.817 35.9268 159.336 35.9764C156.514 36.0661 156.514 36.1311 156.511 38.9325C156.511 40.3749 156.489 41.8174 156.539 43.2567C156.594 44.823 157.531 45.4854 158.993 45.1232C159.379 45.0273 160.075 44.2658 160.149 45.1325C160.22 45.9559 161.169 47.0331 159.948 47.7327C156.514 49.6951 152.999 47.6955 152.916 43.7551C152.894 42.6748 152.913 41.5914 152.916 40.5111L152.922 40.5049Z" fill="#75C642"/>
<path d="M49.6644 39.0488C43.7666 42.8871 37.4206 45.3232 30.2771 45.252C29.8351 45.2489 29.223 45.4439 29.0036 44.9889C28.7346 44.4317 29.3529 44.0974 29.6712 43.7322C30.9108 42.3207 32.376 41.1723 34.0977 40.4325C37.9214 38.7888 41.7729 37.2102 45.6151 35.6068C47.7758 35.4056 49.9674 37.269 49.6644 39.0519V39.0488Z" fill="#3FA64D"/>
<path d="M53.5623 23.4928C53.6117 24.991 53.6303 26.4923 53.7199 27.9873C53.7663 28.7488 53.485 29.2069 52.8389 29.6031C51.2223 30.5968 49.6149 31.6058 47.9087 32.4447C47.207 32.7883 46.8082 32.8595 46.8206 31.8318C46.8762 26.387 46.8886 20.9391 46.9133 15.4943C47.5965 15.0702 48.0756 15.55 48.5485 15.906C49.9735 16.977 51.2501 18.2399 52.774 19.1809C53.3613 19.5431 53.5314 20.0662 53.5159 20.7379C53.4974 21.6542 53.4324 22.5735 53.5623 23.4866V23.4928Z" fill="#41B892"/>
<path d="M49.6665 39.0485C49.1781 36.8849 47.4595 36.1698 45.6172 35.6034C49.0174 33.6997 52.498 31.9508 55.7312 29.7438C60.1268 26.7413 64.0154 23.2063 67.4527 19.0059C67.805 19.8261 67.4218 20.4112 67.2023 20.9962C65.7031 24.9985 63.0169 28.1558 60.0062 31.081C56.8657 34.1331 53.5613 36.9746 49.6665 39.0454V39.0485Z" fill="#6ECA3E"/>
<path d="M53.5613 23.4919C54.0002 20.5699 52.1951 18.9757 50.0467 17.6168C48.9803 16.942 48.2725 15.7318 46.9124 15.4965C46.8876 13.1811 46.8227 10.8658 46.8506 8.55044C46.8753 6.4889 48.3003 5.00621 50.1395 5.00002C52.09 4.99383 53.654 6.45176 53.6633 8.52258C53.685 13.5124 53.6015 18.5021 53.5644 23.4919H53.5613Z" fill="#68CD73"/>
<path d="M58.0309 40.9382C50.8719 46.1446 43.0577 49.6672 34.1028 50.2336C33.1507 50.2924 32.1646 50.2367 32.0719 48.9212C31.9977 47.8625 32.3501 47.1537 33.5587 47.0051C36.9929 46.5842 40.2942 45.6524 43.4873 44.3183C46.3435 43.6559 49.0575 42.5539 51.8147 41.6006C52.7853 41.2663 53.7528 40.9072 54.7111 40.5296C55.861 40.3067 57.0788 39.5452 58.0309 40.9382Z" fill="#3FBDEE"/>
<path d="M39.3909 28.9653C39.3909 27.0059 39.3785 25.0497 39.394 23.0903C39.4063 21.5271 40.3893 20.3539 41.7958 20.1806C43.1651 20.0135 44.8343 21.134 44.8899 22.6043C45.026 26.1547 44.9456 29.7113 44.9518 33.2679C44.9518 33.8065 44.6087 34.1161 44.1697 34.3173C42.9055 34.8899 41.6319 35.4378 40.3677 36.0104C39.6134 36.3509 39.3631 36.0909 39.3754 35.3047C39.4002 33.1936 39.3847 31.0795 39.3847 28.9653C39.3847 28.9653 39.3909 28.9653 39.394 28.9653H39.3909Z" fill="#53C4E8"/>
<path d="M58.0266 40.9375C56.8891 40.142 55.733 40.7642 54.5863 40.888C53.764 41.0954 52.9109 41.117 52.0887 41.3399C51.4859 41.504 50.88 41.4513 50.4844 40.8384C56.1874 37.0497 61.4052 32.6976 65.9275 27.5375C67.0217 26.9587 67.9089 27.5159 68.7775 28.0854C69.2659 28.4043 69.4544 28.8438 69.0927 29.3948C66.0542 33.8676 62.5829 37.9226 58.0266 40.9375Z" fill="#37AD96"/>
<path d="M33.2213 29.0015C33.2213 26.1661 33.2089 23.3307 33.2275 20.4985C33.2367 19.0343 33.957 18.2512 35.1872 18.276C36.4577 18.3007 37.2304 19.0653 37.2428 20.4582C37.2923 25.6647 37.2768 30.868 37.3603 36.0745C37.3757 37.0743 36.8533 37.3931 36.1176 37.7429C33.1564 39.1513 33.1718 39.1637 33.1904 35.9599C33.2027 33.6415 33.1904 31.32 33.1904 29.0015H33.2213Z" fill="#51C3E9"/>
<path d="M71.3199 49.3199C70.8346 51.2514 69.4034 52.4122 67.7466 52.2141C65.895 51.9943 64.7297 50.6107 64.6895 48.5554C64.637 45.8252 64.6957 43.0889 64.5164 40.3649C64.3897 38.421 64.9894 36.9662 66.5658 35.8828C68.1392 36.3162 68.6739 37.7772 67.7621 39.1485C66.3649 41.2471 66.3463 41.2657 68.1206 43.1879C69.1129 44.262 69.8702 45.5157 71.1066 46.435C71.8918 47.02 71.4157 48.3263 71.3199 49.3199Z" fill="#107ACD"/>
<path d="M71.3204 49.3189C71.1504 48.1489 71.5398 47.0067 70.0314 46.0688C68.7486 45.2701 67.9665 43.5863 66.8259 42.4069C65.8708 41.4195 65.9264 40.494 66.9156 39.4941C68.3251 38.0672 68.1984 37.185 66.5663 35.8849C68.0902 33.715 69.8243 31.6999 71.1009 29.4062C71.5769 29.592 71.5306 29.8706 71.5306 30.1151C71.5429 36.1264 71.5522 42.1376 71.5553 48.1458C71.5553 48.5482 71.6264 48.9753 71.3173 49.3189H71.3204Z" fill="#1F93D1"/>
<path d="M55.7773 15.7534C56.21 13.7692 57.3939 12.8499 59.3259 12.9954C60.9332 13.1161 62.3026 14.5709 62.3737 16.2734C62.4015 16.9327 62.3397 17.5982 62.318 18.2575C61.9409 18.8859 61.4371 19.3409 60.686 19.4678C59.9688 19.4926 59.4402 19.0933 58.9178 18.6754C58.0863 18.0068 57.2703 17.3104 56.3059 16.8244C55.87 16.6046 55.5146 16.3229 55.7773 15.7472V15.7534Z" fill="#6DC73E"/>
<path d="M41.3543 68.0039C40.7887 68.0039 40.2261 68.0132 39.6604 68.0039C38.0963 67.9729 37.6141 67.4777 37.6172 65.9919C37.6172 64.5711 38.3869 64.1161 39.6913 64.1749C40.971 64.2337 42.2569 64.2244 43.5397 64.2244C44.7205 64.2244 44.9771 64.9549 45.0018 65.9485C45.0235 66.9515 44.94 67.8615 43.6634 67.9482C42.8968 67.9977 42.124 67.9575 41.3543 67.9575C41.3543 67.9729 41.3543 67.9915 41.3543 68.007V68.0039Z" fill="#116DCC"/>
<path d="M127.226 41.1689C126.611 41.1689 125.996 41.1751 125.381 41.1689C123.18 41.141 123.529 41.5558 123.433 39.2188C123.39 38.1416 123.718 37.7949 124.797 37.8444C126.639 37.928 128.49 37.928 130.333 37.863C132.03 37.8011 131.31 39.0392 131.439 39.7945C131.582 40.6365 131.486 41.302 130.302 41.1812C129.288 41.0791 128.252 41.1596 127.226 41.1596V41.1689Z" fill="#121C2B"/>
<path d="M60.7555 19.2224C61.2749 18.9005 61.7972 18.5817 62.3165 18.2598C62.8668 20.8939 62.1094 22.9493 59.7849 24.4444C58.4929 25.2739 57.3275 26.3047 56.1035 27.2426C55.5842 27.3324 55.6954 26.9331 55.6738 26.6638C55.4018 23.2743 55.4852 23.0979 58.2209 20.9218C59.0214 20.2842 59.7788 19.5908 60.7555 19.2224Z" fill="#40A74D"/>
<path d="M41.3357 56.3027C40.7206 56.3027 40.1055 56.2842 39.4903 56.3058C38.1797 56.3523 37.4657 55.8229 37.4688 54.4207C37.4719 53.0588 38.1952 52.6409 39.4285 52.678C40.7608 52.7214 42.0961 52.7276 43.4284 52.6842C44.977 52.6347 44.9307 53.6809 44.9925 54.755C45.0574 55.8756 44.6246 56.3863 43.4871 56.3213C42.77 56.2811 42.0529 56.3151 41.3326 56.3151V56.2996L41.3357 56.3027Z" fill="#166EC8"/>
<path d="M77.3821 15.5991C77.2245 17.2706 75.8644 18.4407 74.2323 18.3076C72.6713 18.1807 71.4843 16.8094 71.6018 15.2741C71.7254 13.6893 73.1813 12.5068 74.8103 12.674C76.3342 12.8318 77.515 14.1752 77.3821 15.5991Z" fill="#7CCF4C"/>
<path d="M41.2918 62.1226C40.6767 62.1226 40.0616 62.135 39.4464 62.1226C38.2224 62.0947 37.5516 61.5252 37.5392 60.2313C37.5269 58.9622 38.2316 58.4824 39.363 58.4608C40.7447 58.4329 42.1295 58.4391 43.5143 58.4546C44.8249 58.47 45.0382 59.2965 45.066 60.4232C45.0969 61.6335 44.5684 62.1195 43.4401 62.1226C42.723 62.1226 42.0059 62.1226 41.2887 62.1226H41.2918Z" fill="#1671CD"/>
<path d="M69.095 29.3939C68.6746 27.6914 67.2279 27.7409 65.9297 27.5366C67.7132 25.2151 69.4937 22.8874 71.2835 20.572C71.5586 20.216 71.8522 19.6836 72.3715 19.9096C72.965 20.1696 72.8105 20.7825 72.6683 21.2747C71.8429 24.141 70.8971 26.9578 69.095 29.3939Z" fill="#5FC982"/>
<path d="M59.1005 11.5306C57.5272 11.5306 56.436 10.4874 56.4144 8.96758C56.3927 7.50346 57.5581 6.30864 59.0263 6.29316C60.4946 6.27459 61.7836 7.59323 61.7465 9.07283C61.7094 10.4503 60.5471 11.5337 59.1005 11.5337V11.5306Z" fill="#7FCF50"/>
<path d="M60.7577 19.2238C59.4193 20.4094 58.1921 21.7683 56.7053 22.7124C55.778 23.3005 55.7965 23.935 55.8491 24.7058C55.9078 25.5508 55.5276 26.4516 56.1056 27.244C55.8862 27.4731 55.5678 27.5164 55.574 27.1666C55.6512 23.3624 55.2865 19.5489 55.778 15.7539C57.3977 16.9642 58.8629 18.4005 60.7546 19.2238H60.7577Z" fill="#63C96B"/>
<path d="M44.6966 16.2419C44.6688 17.5946 43.4571 18.678 42.0074 18.647C40.6195 18.6161 39.516 17.5234 39.5314 16.1986C39.5469 14.8118 40.7555 13.6356 42.1248 13.6727C43.4973 13.7099 44.7244 14.9357 44.6966 16.245V16.2419Z" fill="#5DC6E6"/>
<path d="M37.5772 14.3721C37.5556 15.6257 36.5571 16.6688 35.3609 16.6874C33.9606 16.706 32.6531 15.4988 32.6964 14.2266C32.7396 13.0008 34.0255 11.7874 35.2651 11.8029C36.588 11.8184 37.5988 12.9451 37.5772 14.3721Z" fill="#61C7E8"/>
<path d="M34.0176 58.3359C35.3313 58.3421 36.0237 59.116 35.9959 60.5058C35.9712 61.8275 35.1057 62.103 34.0392 62.103C32.6822 62.103 32.0084 61.4251 32.0486 60.156C32.0888 58.8838 32.7904 58.3297 34.0145 58.339L34.0176 58.3359Z" fill="#136AC5"/>
<path d="M35.9843 54.7205C35.9379 55.7915 35.1744 56.262 34.0554 56.2589C32.8746 56.2527 32.074 55.7451 32.04 54.4357C32.0091 53.2285 32.7293 52.5073 33.9379 52.5197C35.1744 52.5321 35.9812 53.3307 35.9812 54.7205H35.9843Z" fill="#1E73CC"/>
<path d="M50.4857 40.842C51.8458 41.4394 53.2275 40.2972 54.5876 40.8884C51.3388 42.433 47.8521 43.3245 44.4766 44.51C44.1335 44.6307 43.7626 44.6524 43.4844 44.3181C45.8181 43.1573 48.1519 41.9996 50.4857 40.8389V40.842Z" fill="#22A5C8"/>
<path d="M27.0024 48.6242C27.0209 47.3148 27.7164 46.7886 28.7798 46.801C29.9884 46.8134 30.5293 47.5718 30.483 48.7294C30.4397 49.8438 29.7751 50.4598 28.6901 50.4195C27.5217 50.3793 26.9189 49.6952 26.9993 48.6273L27.0024 48.6242Z" fill="#53C8ED"/>
<path d="M57.1543 61.3555C58.1094 61.4638 58.8142 61.9591 58.8884 62.9527C58.9719 64.0577 58.2702 64.6799 57.213 64.7109C56.2084 64.7387 55.5562 64.1537 55.5469 63.1167C55.5407 62.1077 56.1404 61.535 57.1543 61.3586V61.3555Z" fill="#1C7BDA"/>
<path d="M30.2553 54.4767C30.1934 55.5292 29.6525 56.0863 28.5984 56.1018C27.6093 56.1173 27.0653 55.6251 27.0189 54.6222C26.9694 53.5605 27.4826 52.9445 28.5397 52.9043C29.5876 52.864 30.1347 53.4583 30.2553 54.4798V54.4767Z" fill="#3DC0F1"/>
<path d="M77.8667 8.26917C77.7987 9.06469 77.3783 9.55995 76.5932 9.49805C75.8513 9.44233 75.3444 8.93159 75.4124 8.15774C75.4773 7.43032 75.9626 6.89791 76.7323 6.91649C77.5359 6.93815 77.8512 7.51699 77.8698 8.26608L77.8667 8.26917Z" fill="#82D055"/>
<path d="M42.9599 50.4862C42.9043 50.3996 42.8857 50.3686 42.8672 50.3376C43.4576 50.1179 44.0016 49.6319 44.694 49.9971C44.7528 50.0281 44.8022 50.2293 44.7713 50.2603C44.2056 50.7896 43.5534 50.4677 42.963 50.4893L42.9599 50.4862Z" fill="#5EBFD4"/>
<path d="M174.209 40.6364C174.218 43.3015 172.388 45.264 169.903 45.2547C167.458 45.2423 165.597 43.2551 165.563 40.6178C165.529 37.931 167.319 35.8756 169.724 35.8385C172.342 35.7983 174.196 37.7855 174.209 40.6364Z" fill="#FCFDFC"/>
</g>
<defs>
<clipPath id="clip0_4111_7443">
<rect width="196" height="66" fill="white" transform="translate(27 5)"/>
</clipPath>
</defs>
</svg>
