<svg width="39" height="39" viewBox="0 0 39 39" fill="none" xmlns="http://www.w3.org/2000/svg">
<path d="M4.875 11.375V8.125C4.875 7.26305 5.21741 6.4364 5.8269 5.8269C6.4364 5.21741 7.26305 4.875 8.125 4.875H11.375" stroke="#0E1420" stroke-width="2" stroke-linecap="round" stroke-linejoin="round"/>
<path d="M27.625 4.875H30.875C31.737 4.875 32.5636 5.21741 33.1731 5.8269C33.7826 6.4364 34.125 7.26305 34.125 8.125V11.375" stroke="#0E1420" stroke-width="2" stroke-linecap="round" stroke-linejoin="round"/>
<path d="M34.125 27.625V30.875C34.125 31.737 33.7826 32.5636 33.1731 33.1731C32.5636 33.7826 31.737 34.125 30.875 34.125H27.625" stroke="#0E1420" stroke-width="2" stroke-linecap="round" stroke-linejoin="round"/>
<path d="M11.375 34.125H8.125C7.26305 34.125 6.4364 33.7826 5.8269 33.1731C5.21741 32.5636 4.875 31.737 4.875 30.875V27.625" stroke="#0E1420" stroke-width="2" stroke-linecap="round" stroke-linejoin="round"/>
<path d="M11.375 19.5H27.625" stroke="#0E1420" stroke-width="2" stroke-linecap="round" stroke-linejoin="round"/>
</svg>
